<svg width="548" height="476" viewBox="0 0 548 476" fill="none" xmlns="http://www.w3.org/2000/svg">
<g style="mix-blend-mode:multiply" opacity="0.47">
<g style="mix-blend-mode:multiply" opacity="0.47">
<path d="M426.167 134.339L528.062 107.053C533.799 105.516 538.691 101.766 541.661 96.6254C544.63 91.4845 545.435 85.3761 543.898 79.6423C542.36 73.909 538.607 69.021 533.463 66.0532C528.319 63.0854 522.206 62.2817 516.469 63.8178L355.916 106.807C353.075 107.568 350.113 107.762 347.196 107.378C344.281 106.994 341.469 106.041 338.922 104.571C336.375 103.101 334.143 101.145 332.352 98.8133C330.562 96.4812 329.249 93.8202 328.487 90.9812C326.951 85.2479 327.755 79.1401 330.725 73.9998C333.695 68.8602 338.585 65.1094 344.322 63.5727L417.403 43.9981C420.245 43.2377 422.908 41.9253 425.241 40.1363C427.575 38.3473 429.533 36.1161 431.004 33.5709C432.475 31.0257 433.429 28.2157 433.813 25.3019C434.197 22.3875 434.003 19.4268 433.242 16.5872C431.705 10.8539 427.951 5.96591 422.807 2.99808C417.663 0.0302551 411.55 -0.773432 405.814 0.762716L34.5536 100.171C31.7128 100.932 29.0498 102.244 26.7165 104.033C24.3832 105.822 22.4254 108.053 20.9548 110.598C19.4842 113.143 18.5297 115.953 18.1459 118.867C17.762 121.781 17.9561 124.742 18.7173 127.58C19.478 130.42 20.791 133.082 22.5813 135.414C24.3716 137.747 26.6041 139.704 29.1514 141.174C31.6987 142.644 34.5108 143.598 37.4271 143.982C40.3434 144.365 43.3068 144.171 46.1482 143.41L103.954 127.932C109.692 126.396 115.804 127.2 120.948 130.168C126.092 133.136 129.846 138.024 131.383 143.757C132.144 146.597 132.339 149.557 131.955 152.471C131.571 155.385 130.616 158.195 129.145 160.74C127.675 163.285 125.717 165.516 123.384 167.305C121.051 169.094 118.388 170.406 115.547 171.167L16.5993 197.662C10.8621 199.198 5.97054 202.949 3.00069 208.09C0.0308418 213.23 -0.774093 219.339 0.762946 225.072C1.52408 227.911 2.83728 230.572 4.62765 232.905C6.41803 235.236 8.65043 237.192 11.1974 238.662C13.7444 240.132 16.5561 241.086 19.472 241.469C22.3879 241.853 25.3508 241.659 28.1916 240.898L89.9421 224.363C95.6795 222.826 101.793 223.631 106.936 226.599C112.08 229.567 115.833 234.455 117.371 240.188C118.132 243.027 118.326 245.988 117.942 248.902C117.558 251.816 116.604 254.626 115.134 257.171C113.663 259.716 111.705 261.947 109.372 263.736C107.039 265.525 104.375 266.838 101.534 267.598L97.1533 268.771C94.3113 269.532 91.6474 270.845 89.3135 272.635C86.9796 274.426 85.0214 276.658 83.5511 279.205C82.0809 281.751 81.127 284.563 80.7442 287.478C80.3619 290.393 80.5578 293.355 81.3205 296.195C82.0815 299.034 83.395 301.695 85.1852 304.027C86.9754 306.359 89.2078 308.315 91.7548 309.785C94.3018 311.255 97.1135 312.208 100.03 312.593C102.945 312.976 105.908 312.782 108.749 312.022L112.904 310.909C115.745 310.149 118.708 309.955 121.624 310.338C124.54 310.722 127.351 311.676 129.898 313.145C132.445 314.615 134.677 316.571 136.468 318.903C138.258 321.235 139.571 323.896 140.332 326.735C141.093 329.574 141.288 332.535 140.904 335.449C140.52 338.363 139.566 341.173 138.095 343.718C136.625 346.263 134.667 348.494 132.334 350.283C130.001 352.072 127.337 353.385 124.497 354.146L62.9734 370.619C57.2366 372.155 52.345 375.906 49.3754 381.047C46.4058 386.187 45.6009 392.296 47.1382 398.029C48.6756 403.762 52.4293 408.651 57.5731 411.618C62.717 414.586 68.8295 415.39 74.5669 413.854L186.985 383.752C189.826 382.991 192.789 382.797 195.705 383.181C198.621 383.564 201.433 384.518 203.98 385.988C206.527 387.457 208.759 389.414 210.549 391.745C212.34 394.077 213.653 396.739 214.414 399.577C215.176 402.417 215.37 405.378 214.986 408.292C214.602 411.206 213.647 414.016 212.176 416.562C210.705 419.107 208.747 421.338 206.414 423.127C204.08 424.917 201.417 426.228 198.576 426.989L180.559 431.813C174.822 433.349 169.93 437.1 166.961 442.24C163.991 447.381 163.186 453.49 164.724 459.223C165.485 462.062 166.798 464.723 168.588 467.055C170.379 469.387 172.611 471.343 175.158 472.813C177.705 474.282 180.517 475.236 183.433 475.619C186.348 476.003 189.312 475.808 192.152 475.048L478.399 398.399C484.137 396.863 489.028 393.112 491.998 387.971C494.968 382.831 495.772 376.722 494.235 370.989C493.474 368.15 492.161 365.488 490.37 363.157C488.58 360.825 486.347 358.868 483.8 357.398C481.253 355.929 478.442 354.976 475.526 354.591C472.61 354.208 469.647 354.402 466.806 355.162L458.386 357.418C452.649 358.954 446.536 358.151 441.392 355.184C436.249 352.217 432.495 347.33 430.957 341.597C430.196 338.758 430.002 335.797 430.386 332.883C430.77 329.969 431.725 327.159 433.196 324.614C434.667 322.069 436.624 319.838 438.958 318.049C441.291 316.26 443.955 314.948 446.796 314.187L502.167 299.358C505.008 298.597 507.671 297.285 510.004 295.496C512.337 293.707 514.295 291.476 515.766 288.931C517.236 286.385 518.191 283.575 518.574 280.662C518.958 277.748 518.764 274.787 518.003 271.948C517.242 269.109 515.929 266.448 514.139 264.115C512.348 261.784 510.115 259.828 507.568 258.358C505.021 256.888 502.21 255.934 499.294 255.551C496.378 255.167 493.416 255.362 490.575 256.122L412.061 277.143C409.221 277.903 406.258 278.097 403.342 277.714C400.426 277.331 397.615 276.377 395.068 274.907C392.521 273.437 390.288 271.481 388.497 269.149C386.707 266.817 385.394 264.156 384.633 261.317C383.097 255.584 383.903 249.476 386.873 244.337C389.843 239.198 394.734 235.448 400.47 233.912L456.062 219.026C458.903 218.265 461.567 216.953 463.9 215.164C466.233 213.374 468.191 211.144 469.661 208.599C471.132 206.053 472.086 203.243 472.47 200.329C472.854 197.415 472.659 194.455 471.898 191.616C471.138 188.776 469.825 186.113 468.035 183.78C466.246 181.448 464.013 179.49 461.466 178.02C458.919 176.549 456.107 175.595 453.191 175.211C450.274 174.827 447.311 175.02 444.469 175.781L437.761 177.577C432.024 179.113 425.911 178.31 420.767 175.342C415.623 172.374 411.87 167.486 410.332 161.753C409.571 158.914 409.376 155.952 409.76 153.038C410.143 150.124 411.097 147.314 412.568 144.768C414.038 142.223 415.996 139.991 418.329 138.202C420.663 136.412 423.325 135.1 426.167 134.339Z" fill="#633E29"/>
</g>
<g style="mix-blend-mode:multiply" opacity="0.47">
<path d="M519.802 155.61L513.909 157.188C501.962 160.387 494.872 172.659 498.073 184.598L498.074 184.602C501.275 196.541 513.556 203.626 525.502 200.427L531.395 198.849C543.343 195.65 550.433 183.378 547.231 171.439L547.23 171.435C544.029 159.496 531.749 152.411 519.802 155.61Z" fill="#633E29"/>
</g>
</g>
<g style="mix-blend-mode:multiply" opacity="0.33">
<g style="mix-blend-mode:multiply" opacity="0.33">
<path d="M67.8478 339.113L75.481 328.209C75.5849 328.061 75.744 327.959 75.9226 327.928C76.1013 327.896 76.2853 327.937 76.4343 328.041L84.2249 333.488C84.3738 333.592 84.4753 333.751 84.5068 333.93C84.5383 334.108 84.4973 334.292 84.3934 334.441L76.7602 345.344C76.0087 346.418 74.8608 347.149 73.5697 347.377C72.2781 347.605 70.9492 347.311 69.8748 346.56L69.0646 345.993C67.9902 345.242 67.2584 344.096 67.0304 342.805C66.8019 341.515 67.0963 340.186 67.8478 339.113Z" fill="#BFBFBF"/>
<path d="M67.8478 339.113L75.481 328.209C75.5849 328.061 75.744 327.959 75.9226 327.928C76.1013 327.896 76.2853 327.937 76.4343 328.041L84.2249 333.488C84.3738 333.592 84.4753 333.751 84.5068 333.93C84.5383 334.108 84.4973 334.292 84.3934 334.441L76.7602 345.344C76.0087 346.418 74.8608 347.149 73.5697 347.377C72.2781 347.605 70.9492 347.311 69.8748 346.56L69.0646 345.993C67.9902 345.242 67.2584 344.096 67.0304 342.805C66.8019 341.515 67.0963 340.186 67.8478 339.113Z" stroke="black" stroke-width="6.66667" stroke-linecap="round" stroke-linejoin="round"/>
</g>
<g style="mix-blend-mode:multiply" opacity="0.33">
<path d="M67.8478 339.113L75.481 328.209C75.5849 328.061 75.744 327.959 75.9226 327.928C76.1013 327.896 76.2853 327.937 76.4343 328.041L84.2249 333.488C84.3738 333.592 84.4753 333.751 84.5068 333.93C84.5383 334.108 84.4973 334.292 84.3934 334.441L76.7602 345.344C76.0087 346.418 74.8608 347.149 73.5697 347.377C72.2781 347.605 70.9492 347.311 69.8748 346.56L69.0646 345.993C67.9902 345.242 67.2584 344.096 67.0304 342.805C66.8019 341.515 67.0963 340.186 67.8478 339.113Z" fill="#BFBFBF"/>
<path d="M67.8478 339.113L75.481 328.209C75.5849 328.061 75.744 327.959 75.9226 327.928C76.1013 327.896 76.2853 327.937 76.4343 328.041L84.2249 333.488C84.3738 333.592 84.4753 333.751 84.5068 333.93C84.5383 334.108 84.4973 334.292 84.3934 334.441L76.7602 345.344C76.0087 346.418 74.8608 347.149 73.5697 347.377C72.2781 347.605 70.9492 347.311 69.8748 346.56L69.0646 345.993C67.9902 345.242 67.2584 344.096 67.0304 342.805C66.8019 341.515 67.0963 340.186 67.8478 339.113Z" stroke="black" stroke-width="6.66667" stroke-linecap="round" stroke-linejoin="round"/>
</g>
<g style="mix-blend-mode:multiply" opacity="0.33">
<path d="M97.1592 339.295C114.957 339.295 129.386 324.876 129.386 307.09C129.386 289.303 114.957 274.885 97.1592 274.885C79.3605 274.885 64.9321 289.303 64.9321 307.09C64.9321 324.876 79.3605 339.295 97.1592 339.295Z" fill="#BFBFBF"/>
<path d="M97.1592 339.295C114.957 339.295 129.386 324.876 129.386 307.09C129.386 289.303 114.957 274.885 97.1592 274.885C79.3605 274.885 64.9321 289.303 64.9321 307.09C64.9321 324.876 79.3605 339.295 97.1592 339.295Z" stroke="black" stroke-width="6.66667" stroke-linecap="round" stroke-linejoin="round"/>
</g>
<g style="mix-blend-mode:multiply" opacity="0.33">
<path d="M97.1592 339.295C114.957 339.295 129.386 324.876 129.386 307.09C129.386 289.303 114.957 274.885 97.1592 274.885C79.3605 274.885 64.9321 289.303 64.9321 307.09C64.9321 324.876 79.3605 339.295 97.1592 339.295Z" fill="#BFBFBF"/>
<path d="M97.1592 339.295C114.957 339.295 129.386 324.876 129.386 307.09C129.386 289.303 114.957 274.885 97.1592 274.885C79.3605 274.885 64.9321 289.303 64.9321 307.09C64.9321 324.876 79.3605 339.295 97.1592 339.295Z" stroke="black" stroke-width="6.66667" stroke-linecap="round" stroke-linejoin="round"/>
</g>
<g style="mix-blend-mode:multiply" opacity="0.33">
<path d="M97.1593 332.156C111.012 332.156 122.242 320.933 122.242 307.09C122.242 293.246 111.012 282.023 97.1593 282.023C83.3061 282.023 72.0758 293.246 72.0758 307.09C72.0758 320.933 83.3061 332.156 97.1593 332.156Z" fill="#BFBFBF"/>
<path d="M97.1593 332.156C111.012 332.156 122.242 320.933 122.242 307.09C122.242 293.246 111.012 282.023 97.1593 282.023C83.3061 282.023 72.0758 293.246 72.0758 307.09C72.0758 320.933 83.3061 332.156 97.1593 332.156Z" stroke="black" stroke-width="6.66667" stroke-linecap="round" stroke-linejoin="round"/>
</g>
<g style="mix-blend-mode:multiply" opacity="0.33">
<path d="M97.1593 332.156C111.012 332.156 122.242 320.933 122.242 307.09C122.242 293.246 111.012 282.023 97.1593 282.023C83.3061 282.023 72.0758 293.246 72.0758 307.09C72.0758 320.933 83.3061 332.156 97.1593 332.156Z" fill="#BFBFBF"/>
<path d="M97.1593 332.156C111.012 332.156 122.242 320.933 122.242 307.09C122.242 293.246 111.012 282.023 97.1593 282.023C83.3061 282.023 72.0758 293.246 72.0758 307.09C72.0758 320.933 83.3061 332.156 97.1593 332.156Z" stroke="black" stroke-width="6.66667" stroke-linecap="round" stroke-linejoin="round"/>
</g>
<g style="mix-blend-mode:multiply" opacity="0.33">
<path d="M80.762 301.886C81.0974 301.131 81.4606 300.391 81.8304 299.666C83.512 296.372 85.5236 292.957 88.7336 290.939C91.4593 289.225 95.2705 288.554 98.2247 290.07C100.787 291.385 102.331 294.089 104.669 295.772C106.244 296.736 107.881 297.597 109.57 298.347C111.274 299.114 112.623 300.499 113.342 302.224C114.133 304.639 112.828 307.218 112.816 309.761C112.811 311.163 113.201 312.539 113.941 313.732C114.408 314.29 114.707 314.968 114.806 315.689C114.735 316.15 114.539 316.583 114.241 316.942C113.942 317.301 113.551 317.571 113.11 317.725C110.512 318.952 107.477 318.509 104.62 318.201C101.764 317.892 98.5999 317.827 96.3413 319.602C95.4166 320.454 94.5601 321.377 93.7801 322.363C93.4507 322.857 93.0156 323.271 92.5069 323.577C91.9982 323.883 91.4278 324.074 90.8372 324.134C90.246 324.194 89.6495 324.123 89.0892 323.926C88.5288 323.728 88.0195 323.41 87.5969 322.992C85.5491 321.278 83.7732 319.265 82.3278 317.02C80.8095 315.121 79.7369 312.906 79.1891 310.538C78.6756 307.597 79.5316 304.654 80.762 301.886Z" fill="#BFBFBF"/>
<path d="M80.762 301.886C81.0974 301.131 81.4606 300.391 81.8304 299.666C83.512 296.372 85.5236 292.957 88.7336 290.939C91.4593 289.225 95.2705 288.554 98.2247 290.07C100.787 291.385 102.331 294.089 104.669 295.772C106.244 296.736 107.881 297.597 109.57 298.347C111.274 299.114 112.623 300.499 113.342 302.224C114.133 304.639 112.828 307.218 112.816 309.761C112.811 311.163 113.201 312.539 113.941 313.732C114.408 314.29 114.707 314.968 114.806 315.689C114.735 316.15 114.539 316.583 114.241 316.942C113.942 317.301 113.551 317.571 113.11 317.725C110.512 318.952 107.477 318.509 104.62 318.201C101.764 317.892 98.5999 317.827 96.3413 319.602C95.4166 320.454 94.5601 321.377 93.7801 322.363C93.4507 322.857 93.0156 323.271 92.5069 323.577C91.9982 323.883 91.4278 324.074 90.8372 324.134C90.246 324.194 89.6495 324.123 89.0892 323.926C88.5288 323.728 88.0195 323.41 87.5969 322.992C85.5491 321.278 83.7732 319.265 82.3278 317.02C80.8095 315.121 79.7369 312.906 79.1891 310.538C78.6756 307.597 79.5316 304.654 80.762 301.886Z" stroke="black" stroke-width="6.66667" stroke-linecap="round" stroke-linejoin="round"/>
</g>
<g style="mix-blend-mode:multiply" opacity="0.33">
<path d="M102.232 326.067C103.092 326.067 103.789 325.37 103.789 324.511C103.789 323.651 103.092 322.954 102.232 322.954C101.372 322.954 100.675 323.651 100.675 324.511C100.675 325.37 101.372 326.067 102.232 326.067Z" fill="#BFBFBF"/>
<path d="M102.232 326.067C103.092 326.067 103.789 325.37 103.789 324.511C103.789 323.651 103.092 322.954 102.232 322.954C101.372 322.954 100.675 323.651 100.675 324.511C100.675 325.37 101.372 326.067 102.232 326.067Z" stroke="black" stroke-width="6.66667" stroke-linecap="round" stroke-linejoin="round"/>
</g>
<g style="mix-blend-mode:multiply" opacity="0.33">
<path d="M98.179 326.162C98.7743 326.162 99.2575 325.68 99.2575 325.085C99.2575 324.489 98.7743 324.007 98.179 324.007C97.5836 324.007 97.1011 324.489 97.1011 325.085C97.1011 325.68 97.5836 326.162 98.179 326.162Z" fill="#BFBFBF"/>
<path d="M98.179 326.162C98.7743 326.162 99.2575 325.68 99.2575 325.085C99.2575 324.489 98.7743 324.007 98.179 324.007C97.5836 324.007 97.1011 324.489 97.1011 325.085C97.1011 325.68 97.5836 326.162 98.179 326.162Z" stroke="black" stroke-width="6.66667" stroke-linecap="round" stroke-linejoin="round"/>
</g>
<g style="mix-blend-mode:multiply" opacity="0.33">
<path d="M105.911 324.039C106.451 324.039 106.889 323.603 106.889 323.063C106.889 322.524 106.451 322.086 105.911 322.086C105.372 322.086 104.934 322.524 104.934 323.063C104.934 323.603 105.372 324.039 105.911 324.039Z" fill="#BFBFBF"/>
<path d="M105.911 324.039C106.451 324.039 106.889 323.603 106.889 323.063C106.889 322.524 106.451 322.086 105.911 322.086C105.372 322.086 104.934 322.524 104.934 323.063C104.934 323.603 105.372 324.039 105.911 324.039Z" stroke="black" stroke-width="6.66667" stroke-linecap="round" stroke-linejoin="round"/>
</g>
<g style="mix-blend-mode:multiply" opacity="0.33">
<path d="M94.7684 326.188C95.1548 326.188 95.4688 325.875 95.4688 325.488C95.4688 325.101 95.1548 324.788 94.7684 324.788C94.3814 324.788 94.068 325.101 94.068 325.488C94.068 325.875 94.3814 326.188 94.7684 326.188Z" fill="#BFBFBF"/>
<path d="M94.7684 326.188C95.1548 326.188 95.4688 325.875 95.4688 325.488C95.4688 325.101 95.1548 324.788 94.7684 324.788C94.3814 324.788 94.068 325.101 94.068 325.488C94.068 325.875 94.3814 326.188 94.7684 326.188Z" stroke="black" stroke-width="6.66667" stroke-linecap="round" stroke-linejoin="round"/>
</g>
<g style="mix-blend-mode:multiply" opacity="0.33">
<path d="M108.999 322.459C109.235 322.459 109.426 322.267 109.426 322.031C109.426 321.795 109.235 321.604 108.999 321.604C108.763 321.604 108.571 321.795 108.571 322.031C108.571 322.267 108.763 322.459 108.999 322.459Z" fill="#BFBFBF"/>
<path d="M108.999 322.459C109.235 322.459 109.426 322.267 109.426 322.031C109.426 321.795 109.235 321.604 108.999 321.604C108.763 321.604 108.571 321.795 108.571 322.031C108.571 322.267 108.763 322.459 108.999 322.459Z" stroke="black" stroke-width="6.66667" stroke-linecap="round" stroke-linejoin="round"/>
</g>
<g style="mix-blend-mode:multiply" opacity="0.33">
<path d="M77.6951 302.17C78.2495 302.17 78.6983 301.721 78.6983 301.168C78.6983 300.614 78.2495 300.165 77.6951 300.165C77.1413 300.165 76.692 300.614 76.692 301.168C76.692 301.721 77.1413 302.17 77.6951 302.17Z" fill="#BFBFBF"/>
<path d="M77.6951 302.17C78.2495 302.17 78.6983 301.721 78.6983 301.168C78.6983 300.614 78.2495 300.165 77.6951 300.165C77.1413 300.165 76.692 300.614 76.692 301.168C76.692 301.721 77.1413 302.17 77.6951 302.17Z" stroke="black" stroke-width="6.66667" stroke-linecap="round" stroke-linejoin="round"/>
</g>
<g style="mix-blend-mode:multiply" opacity="0.33">
<path d="M105.004 290.447C105.525 290.447 105.948 290.025 105.948 289.503C105.948 288.983 105.525 288.56 105.004 288.56C104.483 288.56 104.06 288.983 104.06 289.503C104.06 290.025 104.483 290.447 105.004 290.447Z" fill="#BFBFBF"/>
<path d="M105.004 290.447C105.525 290.447 105.948 290.025 105.948 289.503C105.948 288.983 105.525 288.56 105.004 288.56C104.483 288.56 104.06 288.983 104.06 289.503C104.06 290.025 104.483 290.447 105.004 290.447Z" stroke="black" stroke-width="6.66667" stroke-linecap="round" stroke-linejoin="round"/>
</g>
<g style="mix-blend-mode:multiply" opacity="0.33">
<path d="M111.138 295.004C111.61 295.004 111.993 294.622 111.993 294.15C111.993 293.678 111.61 293.296 111.138 293.296C110.666 293.296 110.284 293.678 110.284 294.15C110.284 294.622 110.666 295.004 111.138 295.004Z" fill="#BFBFBF"/>
<path d="M111.138 295.004C111.61 295.004 111.993 294.622 111.993 294.15C111.993 293.678 111.61 293.296 111.138 293.296C110.666 293.296 110.284 293.678 110.284 294.15C110.284 294.622 110.666 295.004 111.138 295.004Z" stroke="black" stroke-width="6.66667" stroke-linecap="round" stroke-linejoin="round"/>
</g>
<g style="mix-blend-mode:multiply" opacity="0.33">
<path d="M111.84 296.944C112.047 296.944 112.214 296.776 112.214 296.57C112.214 296.363 112.047 296.196 111.84 296.196C111.633 296.196 111.466 296.363 111.466 296.57C111.466 296.776 111.633 296.944 111.84 296.944Z" fill="#BFBFBF"/>
<path d="M111.84 296.944C112.047 296.944 112.214 296.776 112.214 296.57C112.214 296.363 112.047 296.196 111.84 296.196C111.633 296.196 111.466 296.363 111.466 296.57C111.466 296.776 111.633 296.944 111.84 296.944Z" stroke="black" stroke-width="6.66667" stroke-linecap="round" stroke-linejoin="round"/>
</g>
</g>
<path d="M60.845 331.172L68.483 320.266C68.5874 320.117 68.7459 320.016 68.9246 319.984C69.1038 319.953 69.2878 319.994 69.4362 320.098L77.2297 325.549C77.3787 325.653 77.4802 325.812 77.5117 325.991C77.5432 326.169 77.5022 326.353 77.3983 326.502L69.7597 337.408C69.0077 338.482 67.8591 339.213 66.5675 339.441C65.2753 339.669 63.9457 339.375 62.8714 338.623L62.0606 338.056C60.9862 337.304 60.2544 336.157 60.0258 334.866C59.7979 333.575 60.0923 332.246 60.845 331.172Z" fill="#F2F4F7" stroke="white" stroke-width="3.33333" stroke-miterlimit="10"/>
<path opacity="0.18" d="M69.4361 320.1C69.2871 319.997 69.1031 319.956 68.9244 319.988C68.7458 320.019 68.5873 320.121 68.4834 320.269L65.0437 325.179C66.3626 326.435 67.7741 327.589 69.2669 328.633C70.7592 329.676 72.3274 330.606 73.9579 331.416L77.3976 326.505C77.4492 326.431 77.486 326.348 77.5056 326.261C77.5252 326.173 77.527 326.082 77.5116 325.994C77.4955 325.905 77.4629 325.821 77.4142 325.745C77.3661 325.669 77.3032 325.604 77.2296 325.553L69.4361 320.1Z" fill="#BFBFBF" stroke="black" stroke-width="6.66667" stroke-linecap="round" stroke-linejoin="round"/>
<path d="M60.845 331.172L68.483 320.266C68.5874 320.117 68.7459 320.016 68.9246 319.984C69.1038 319.953 69.2878 319.994 69.4362 320.098L77.2297 325.549C77.3787 325.653 77.4802 325.812 77.5117 325.991C77.5432 326.169 77.5022 326.353 77.3983 326.502L69.7597 337.408C69.0077 338.482 67.8591 339.213 66.5675 339.441C65.2753 339.669 63.9457 339.375 62.8714 338.623L62.0606 338.056C60.9862 337.304 60.2544 336.157 60.0258 334.866C59.7979 333.575 60.0923 332.246 60.845 331.172Z" stroke="black" stroke-width="6.66667" stroke-linecap="round" stroke-linejoin="round"/>
<path d="M90.015 331.213C107.813 331.213 122.242 316.794 122.242 299.008C122.242 281.221 107.813 266.803 90.015 266.803C72.2164 266.803 57.7886 281.221 57.7886 299.008C57.7886 316.794 72.2164 331.213 90.015 331.213Z" fill="#F2F4F7" stroke="white" stroke-width="3.33333" stroke-miterlimit="10"/>
<path d="M90.015 331.213C107.813 331.213 122.242 316.794 122.242 299.008C122.242 281.221 107.813 266.803 90.015 266.803C72.2164 266.803 57.7886 281.221 57.7886 299.008C57.7886 316.794 72.2164 331.213 90.015 331.213Z" stroke="black" stroke-width="6.66667" stroke-linecap="round" stroke-linejoin="round"/>
<path d="M90.0144 324.074C103.868 324.074 115.097 312.851 115.097 299.008C115.097 285.164 103.868 273.941 90.0144 273.941C76.1612 273.941 64.9315 285.164 64.9315 299.008C64.9315 312.851 76.1612 324.074 90.0144 324.074Z" fill="#633E29"/>
<path d="M90.0144 324.074C103.868 324.074 115.097 312.851 115.097 299.008C115.097 285.164 103.868 273.941 90.0144 273.941C76.1612 273.941 64.9315 285.164 64.9315 299.008C64.9315 312.851 76.1612 324.074 90.0144 324.074Z" stroke="black" stroke-width="3.33333" stroke-linecap="round" stroke-linejoin="round"/>
<g style="mix-blend-mode:multiply" opacity="0.33">
<path d="M73.6171 293.804C73.9525 293.049 74.3157 292.308 74.6855 291.583C76.3677 288.29 78.3799 284.876 81.5887 282.857C84.3155 281.142 88.1262 280.472 91.0798 281.988C93.6422 283.303 95.1867 286.008 97.5242 287.69C99.1001 288.652 100.738 289.511 102.426 290.26C104.129 291.027 105.478 292.411 106.198 294.133C106.99 296.55 105.684 299.129 105.671 301.67C105.667 303.074 106.056 304.449 106.796 305.642C107.263 306.199 107.563 306.878 107.662 307.598C107.592 308.06 107.396 308.493 107.097 308.853C106.798 309.212 106.407 309.482 105.966 309.636C103.367 310.862 100.333 310.42 97.4755 310.11C94.6187 309.801 91.4561 309.738 89.1964 311.512C88.2722 312.364 87.4157 313.287 86.6352 314.272C86.3058 314.766 85.8707 315.181 85.362 315.487C84.8533 315.793 84.2835 315.984 83.6923 316.044C83.1017 316.104 82.5046 316.033 81.9448 315.836C81.3845 315.639 80.8746 315.32 80.452 314.903C78.4048 313.189 76.6283 311.175 75.1835 308.93C73.6658 307.033 72.5944 304.819 72.0471 302.453C71.526 299.515 72.3878 296.571 73.6171 293.804Z" fill="#633E29"/>
</g>
<g style="mix-blend-mode:multiply" opacity="0.33">
<path d="M95.0878 317.983C95.9479 317.983 96.6447 317.287 96.6447 316.427C96.6447 315.568 95.9479 314.871 95.0878 314.871C94.2277 314.871 93.5303 315.568 93.5303 316.427C93.5303 317.287 94.2277 317.983 95.0878 317.983Z" fill="#633E29"/>
</g>
<g style="mix-blend-mode:multiply" opacity="0.33">
<path d="M91.0348 318.08C91.6302 318.08 92.1133 317.597 92.1133 317.002C92.1133 316.407 91.6302 315.924 91.0348 315.924C90.4395 315.924 89.9563 316.407 89.9563 317.002C89.9563 317.597 90.4395 318.08 91.0348 318.08Z" fill="#633E29"/>
</g>
<g style="mix-blend-mode:multiply" opacity="0.33">
<path d="M98.7672 315.958C99.3067 315.958 99.7442 315.52 99.7442 314.981C99.7442 314.441 99.3067 314.004 98.7672 314.004C98.227 314.004 97.7896 314.441 97.7896 314.981C97.7896 315.52 98.227 315.958 98.7672 315.958Z" fill="#633E29"/>
</g>
<g style="mix-blend-mode:multiply" opacity="0.33">
<path d="M87.6236 318.107C88.0106 318.107 88.324 317.793 88.324 317.406C88.324 317.02 88.0106 316.707 87.6236 316.707C87.2366 316.707 86.9232 317.02 86.9232 317.406C86.9232 317.793 87.2366 318.107 87.6236 318.107Z" fill="#633E29"/>
</g>
<g style="mix-blend-mode:multiply" opacity="0.33">
<path d="M101.854 314.376C102.09 314.376 102.282 314.185 102.282 313.948C102.282 313.712 102.09 313.521 101.854 313.521C101.618 313.521 101.427 313.712 101.427 313.948C101.427 314.185 101.618 314.376 101.854 314.376Z" fill="#633E29"/>
</g>
<g style="mix-blend-mode:multiply" opacity="0.33">
<path d="M70.5509 294.088C71.1047 294.088 71.554 293.639 71.554 293.085C71.554 292.531 71.1047 292.083 70.5509 292.083C69.9965 292.083 69.5477 292.531 69.5477 293.085C69.5477 293.639 69.9965 294.088 70.5509 294.088Z" fill="#633E29"/>
</g>
<g style="mix-blend-mode:multiply" opacity="0.33">
<path d="M97.8595 282.363C98.3807 282.363 98.8033 281.941 98.8033 281.42C98.8033 280.9 98.3807 280.477 97.8595 280.477C97.3384 280.477 96.9158 280.9 96.9158 281.42C96.9158 281.941 97.3384 282.363 97.8595 282.363Z" fill="#633E29"/>
</g>
<g style="mix-blend-mode:multiply" opacity="0.33">
<path d="M103.994 286.921C104.466 286.921 104.849 286.539 104.849 286.067C104.849 285.595 104.466 285.213 103.994 285.213C103.522 285.213 103.139 285.595 103.139 286.067C103.139 286.539 103.522 286.921 103.994 286.921Z" fill="#633E29"/>
</g>
<g style="mix-blend-mode:multiply" opacity="0.33">
<path d="M104.696 288.861C104.902 288.861 105.07 288.693 105.07 288.487C105.07 288.28 104.902 288.113 104.696 288.113C104.489 288.113 104.322 288.28 104.322 288.487C104.322 288.693 104.489 288.861 104.696 288.861Z" fill="#633E29"/>
</g>
<path d="M92.213 303.055C93.3057 303.055 94.1913 302.17 94.1913 301.077C94.1913 299.986 93.3057 299.1 92.213 299.1C91.1202 299.1 90.2346 299.986 90.2346 301.077C90.2346 302.17 91.1202 303.055 92.213 303.055Z" fill="#633E29"/>
<path d="M85.7687 296.944C87.6811 296.944 89.2309 295.395 89.2309 293.485C89.2309 291.573 87.6811 290.024 85.7687 290.024C83.8562 290.024 82.3064 291.573 82.3064 293.485C82.3064 295.395 83.8562 296.944 85.7687 296.944Z" fill="#633E29"/>
<g style="mix-blend-mode:multiply" opacity="0.33">
<g style="mix-blend-mode:multiply" opacity="0.33">
<path d="M400.735 195.3H171.223C163.573 195.3 157.372 201.497 157.372 209.141V226.42C157.372 234.064 163.573 240.261 171.223 240.261H400.735C408.384 240.261 414.585 234.064 414.585 226.42V209.141C414.585 201.497 408.384 195.3 400.735 195.3Z" fill="#BFBFBF"/>
<path d="M400.735 195.3H171.223C163.573 195.3 157.372 201.497 157.372 209.141V226.42C157.372 234.064 163.573 240.261 171.223 240.261H400.735C408.384 240.261 414.585 234.064 414.585 226.42V209.141C414.585 201.497 408.384 195.3 400.735 195.3Z" stroke="black" stroke-width="1.66667" stroke-linecap="round" stroke-linejoin="round"/>
</g>
<g style="mix-blend-mode:multiply" opacity="0.33">
<path d="M400.735 195.3H171.223C163.573 195.3 157.372 201.497 157.372 209.141V226.42C157.372 234.064 163.573 240.261 171.223 240.261H400.735C408.384 240.261 414.585 234.064 414.585 226.42V209.141C414.585 201.497 408.384 195.3 400.735 195.3Z" fill="#BFBFBF"/>
</g>
<g style="mix-blend-mode:multiply" opacity="0.17">
<path d="M171.222 195.3H400.734C404.407 195.3 407.93 196.759 410.528 199.354C413.125 201.95 414.584 205.471 414.584 209.141V229.347C414.584 231.588 413.693 233.738 412.107 235.323C410.521 236.908 408.37 237.799 406.127 237.799H165.831C163.588 237.799 161.437 236.908 159.851 235.323C158.265 233.738 157.373 231.588 157.373 229.347V209.141C157.373 205.471 158.833 201.95 161.43 199.354C164.027 196.759 167.55 195.3 171.223 195.3H171.222Z" fill="#BFBFBF"/>
</g>
<g style="mix-blend-mode:multiply" opacity="0.33">
<path d="M400.735 195.3H171.223C163.573 195.3 157.372 201.497 157.372 209.141V226.42C157.372 234.064 163.573 240.261 171.223 240.261H400.735C408.384 240.261 414.585 234.064 414.585 226.42V209.141C414.585 201.497 408.384 195.3 400.735 195.3Z" fill="#BFBFBF"/>
<path d="M400.735 195.3H171.223C163.573 195.3 157.372 201.497 157.372 209.141V226.42C157.372 234.064 163.573 240.261 171.223 240.261H400.735C408.384 240.261 414.585 234.064 414.585 226.42V209.141C414.585 201.497 408.384 195.3 400.735 195.3Z" stroke="black" stroke-width="6.66667" stroke-linecap="round" stroke-linejoin="round"/>
</g>
<g style="mix-blend-mode:multiply" opacity="0.33">
<path d="M396.778 234.909V200.366H175.18V234.909H396.778Z" fill="#BFBFBF"/>
</g>
<g style="mix-blend-mode:multiply" opacity="0.33">
<path d="M396.778 234.909V200.366H175.18V234.909H396.778Z" fill="#BFBFBF"/>
<path d="M396.778 234.909V200.366H175.18V234.909H396.778Z" stroke="black" stroke-width="1.66667" stroke-linecap="round" stroke-linejoin="round"/>
</g>
<g style="mix-blend-mode:multiply" opacity="0.33">
<path d="M400.735 240.261H171.224C163.574 240.261 157.373 246.457 157.373 254.101V396.462C157.373 404.106 163.574 410.303 171.224 410.303H400.735C408.385 410.303 414.586 404.106 414.586 396.462V254.101C414.586 246.457 408.385 240.261 400.735 240.261Z" fill="#BFBFBF"/>
</g>
<g style="mix-blend-mode:multiply" opacity="0.33">
<path d="M410.628 396.462V254.101C410.628 248.641 406.199 244.215 400.736 244.215H171.224C165.76 244.215 161.331 248.641 161.331 254.101V396.462C161.331 401.922 165.76 406.349 171.224 406.349H400.736C406.199 406.349 410.628 401.922 410.628 396.462Z" fill="#BFBFBF"/>
<path d="M410.628 396.462V254.101C410.628 248.641 406.199 244.215 400.736 244.215H171.224C165.76 244.215 161.331 248.641 161.331 254.101V396.462C161.331 401.922 165.76 406.349 171.224 406.349H400.736C406.199 406.349 410.628 401.922 410.628 396.462Z" stroke="white" stroke-width="3.33333" stroke-miterlimit="10"/>
</g>
<g style="mix-blend-mode:multiply" opacity="0.33">
<path d="M270.101 402.569H301.857C302.906 402.569 303.913 402.986 304.655 403.728C305.397 404.469 305.814 405.475 305.814 406.524V410.301H266.144V406.524C266.144 405.475 266.561 404.469 267.303 403.728C268.045 402.986 269.052 402.569 270.101 402.569Z" fill="#BFBFBF"/>
</g>
<g style="mix-blend-mode:multiply" opacity="0.33">
<path d="M400.735 240.261H171.224C163.574 240.261 157.373 246.457 157.373 254.101V396.462C157.373 404.106 163.574 410.303 171.224 410.303H400.735C408.385 410.303 414.586 404.106 414.586 396.462V254.101C414.586 246.457 408.385 240.261 400.735 240.261Z" fill="#BFBFBF"/>
<path d="M400.735 240.261H171.224C163.574 240.261 157.373 246.457 157.373 254.101V396.462C157.373 404.106 163.574 410.303 171.224 410.303H400.735C408.385 410.303 414.586 404.106 414.586 396.462V254.101C414.586 246.457 408.385 240.261 400.735 240.261Z" stroke="black" stroke-width="6.66667" stroke-linecap="round" stroke-linejoin="round"/>
</g>
<g style="mix-blend-mode:multiply" opacity="0.33">
<path d="M396.778 253.529H175.18C173.54 253.529 172.212 254.856 172.212 256.494V341.516C172.212 343.154 173.54 344.481 175.18 344.481H396.778C398.416 344.481 399.745 343.154 399.745 341.516V256.494C399.745 254.856 398.416 253.529 396.778 253.529Z" fill="#BFBFBF"/>
</g>
<g style="mix-blend-mode:multiply" opacity="0.33">
<path d="M215.824 322.237H203.953C203.406 322.237 202.964 322.68 202.964 323.226V335.089C202.964 335.635 203.406 336.078 203.953 336.078H215.824C216.37 336.078 216.813 335.635 216.813 335.089V323.226C216.813 322.68 216.37 322.237 215.824 322.237Z" fill="#BFBFBF"/>
<path d="M215.824 322.237H203.953C203.406 322.237 202.964 322.68 202.964 323.226V335.089C202.964 335.635 203.406 336.078 203.953 336.078H215.824C216.37 336.078 216.813 335.635 216.813 335.089V323.226C216.813 322.68 216.37 322.237 215.824 322.237Z" stroke="#808080" stroke-width="1.66667" stroke-linecap="round" stroke-linejoin="round"/>
</g>
<g style="mix-blend-mode:multiply" opacity="0.33">
<path d="M194.417 322.237H182.545C181.999 322.237 181.557 322.68 181.557 323.226V335.089C181.557 335.635 181.999 336.078 182.545 336.078H194.417C194.963 336.078 195.406 335.635 195.406 335.089V323.226C195.406 322.68 194.963 322.237 194.417 322.237Z" fill="#BFBFBF"/>
<path d="M194.417 322.237H182.545C181.999 322.237 181.557 322.68 181.557 323.226V335.089C181.557 335.635 181.999 336.078 182.545 336.078H194.417C194.963 336.078 195.406 335.635 195.406 335.089V323.226C195.406 322.68 194.963 322.237 194.417 322.237Z" stroke="#808080" stroke-width="1.66667" stroke-linecap="round" stroke-linejoin="round"/>
</g>
<g style="mix-blend-mode:multiply" opacity="0.33">
<path d="M322.856 322.237H225.359C224.813 322.237 224.37 322.68 224.37 323.226V335.089C224.37 335.635 224.813 336.078 225.359 336.078H322.856C323.402 336.078 323.846 335.635 323.846 335.089V323.226C323.846 322.68 323.402 322.237 322.856 322.237Z" fill="#BFBFBF"/>
<path d="M322.856 322.237H225.359C224.813 322.237 224.37 322.68 224.37 323.226V335.089C224.37 335.635 224.813 336.078 225.359 336.078H322.856C323.402 336.078 323.846 335.635 323.846 335.089V323.226C323.846 322.68 323.402 322.237 322.856 322.237Z" stroke="#808080" stroke-width="1.66667" stroke-linecap="round" stroke-linejoin="round"/>
</g>
<g style="mix-blend-mode:multiply" opacity="0.33">
<path d="M344.263 322.237H332.392C331.845 322.237 331.402 322.68 331.402 323.226V335.089C331.402 335.635 331.845 336.078 332.392 336.078H344.263C344.809 336.078 345.253 335.635 345.253 335.089V323.226C345.253 322.68 344.809 322.237 344.263 322.237Z" fill="#BFBFBF"/>
<path d="M344.263 322.237H332.392C331.845 322.237 331.402 322.68 331.402 323.226V335.089C331.402 335.635 331.845 336.078 332.392 336.078H344.263C344.809 336.078 345.253 335.635 345.253 335.089V323.226C345.253 322.68 344.809 322.237 344.263 322.237Z" stroke="#808080" stroke-width="1.66667" stroke-linecap="round" stroke-linejoin="round"/>
</g>
<g style="mix-blend-mode:multiply" opacity="0.33">
<path d="M375.563 330.023H367.648C367.102 330.023 366.659 330.465 366.659 331.012V335.089C366.659 335.635 367.102 336.078 367.648 336.078H375.563C376.109 336.078 376.552 335.635 376.552 335.089V331.012C376.552 330.465 376.109 330.023 375.563 330.023Z" fill="#BFBFBF"/>
<path d="M375.563 330.023H367.648C367.102 330.023 366.659 330.465 366.659 331.012V335.089C366.659 335.635 367.102 336.078 367.648 336.078H375.563C376.109 336.078 376.552 335.635 376.552 335.089V331.012C376.552 330.465 376.109 330.023 375.563 330.023Z" stroke="#808080" stroke-width="1.66667" stroke-linecap="round" stroke-linejoin="round"/>
</g>
<g style="mix-blend-mode:multiply" opacity="0.33">
<path d="M375.563 322.237H367.648C367.102 322.237 366.659 322.68 366.659 323.226V327.304C366.659 327.85 367.102 328.293 367.648 328.293H375.563C376.109 328.293 376.552 327.85 376.552 327.304V323.226C376.552 322.68 376.109 322.237 375.563 322.237Z" fill="#BFBFBF"/>
<path d="M375.563 322.237H367.648C367.102 322.237 366.659 322.68 366.659 323.226V327.304C366.659 327.85 367.102 328.293 367.648 328.293H375.563C376.109 328.293 376.552 327.85 376.552 327.304V323.226C376.552 322.68 376.109 322.237 375.563 322.237Z" stroke="#808080" stroke-width="1.66667" stroke-linecap="round" stroke-linejoin="round"/>
</g>
<g style="mix-blend-mode:multiply" opacity="0.33">
<path d="M389.412 330.023H381.498C380.952 330.023 380.509 330.465 380.509 331.012V335.089C380.509 335.635 380.952 336.078 381.498 336.078H389.412C389.959 336.078 390.402 335.635 390.402 335.089V331.012C390.402 330.465 389.959 330.023 389.412 330.023Z" fill="#BFBFBF"/>
<path d="M389.412 330.023H381.498C380.952 330.023 380.509 330.465 380.509 331.012V335.089C380.509 335.635 380.952 336.078 381.498 336.078H389.412C389.959 336.078 390.402 335.635 390.402 335.089V331.012C390.402 330.465 389.959 330.023 389.412 330.023Z" stroke="#808080" stroke-width="1.66667" stroke-linecap="round" stroke-linejoin="round"/>
</g>
<g style="mix-blend-mode:multiply" opacity="0.33">
<path d="M361.713 330.023H353.799C353.252 330.023 352.81 330.465 352.81 331.012V335.089C352.81 335.635 353.252 336.078 353.799 336.078H361.713C362.259 336.078 362.702 335.635 362.702 335.089V331.012C362.702 330.465 362.259 330.023 361.713 330.023Z" fill="#BFBFBF"/>
<path d="M361.713 330.023H353.799C353.252 330.023 352.81 330.465 352.81 331.012V335.089C352.81 335.635 353.252 336.078 353.799 336.078H361.713C362.259 336.078 362.702 335.635 362.702 335.089V331.012C362.702 330.465 362.259 330.023 361.713 330.023Z" stroke="#808080" stroke-width="1.66667" stroke-linecap="round" stroke-linejoin="round"/>
</g>
<g style="mix-blend-mode:multiply" opacity="0.33">
<path d="M213.845 302.544H182.545C181.999 302.544 181.557 302.986 181.557 303.532V315.395C181.557 315.941 181.999 316.384 182.545 316.384H213.845C214.391 316.384 214.835 315.941 214.835 315.395V303.532C214.835 302.986 214.391 302.544 213.845 302.544Z" fill="#BFBFBF"/>
<path d="M213.845 302.544H182.545C181.999 302.544 181.557 302.986 181.557 303.532V315.395C181.557 315.941 181.999 316.384 182.545 316.384H213.845C214.391 316.384 214.835 315.941 214.835 315.395V303.532C214.835 302.986 214.391 302.544 213.845 302.544Z" stroke="#808080" stroke-width="1.66667" stroke-linecap="round" stroke-linejoin="round"/>
</g>
<g style="mix-blend-mode:multiply" opacity="0.33">
<path d="M235.43 302.544H223.559C223.012 302.544 222.57 302.986 222.57 303.532V315.395C222.57 315.941 223.012 316.384 223.559 316.384H235.43C235.976 316.384 236.42 315.941 236.42 315.395V303.532C236.42 302.986 235.976 302.544 235.43 302.544Z" fill="#BFBFBF"/>
<path d="M235.43 302.544H223.559C223.012 302.544 222.57 302.986 222.57 303.532V315.395C222.57 315.941 223.012 316.384 223.559 316.384H235.43C235.976 316.384 236.42 315.941 236.42 315.395V303.532C236.42 302.986 235.976 302.544 235.43 302.544Z" stroke="#808080" stroke-width="1.66667" stroke-linecap="round" stroke-linejoin="round"/>
</g>
<g style="mix-blend-mode:multiply" opacity="0.33">
<path d="M256.837 302.544H244.966C244.42 302.544 243.977 302.986 243.977 303.532V315.395C243.977 315.941 244.42 316.384 244.966 316.384H256.837C257.384 316.384 257.827 315.941 257.827 315.395V303.532C257.827 302.986 257.384 302.544 256.837 302.544Z" fill="#BFBFBF"/>
<path d="M256.837 302.544H244.966C244.42 302.544 243.977 302.986 243.977 303.532V315.395C243.977 315.941 244.42 316.384 244.966 316.384H256.837C257.384 316.384 257.827 315.941 257.827 315.395V303.532C257.827 302.986 257.384 302.544 256.837 302.544Z" stroke="#808080" stroke-width="1.66667" stroke-linecap="round" stroke-linejoin="round"/>
</g>
<g style="mix-blend-mode:multiply" opacity="0.33">
<path d="M278.244 302.544H266.372C265.826 302.544 265.383 302.986 265.383 303.532V315.395C265.383 315.941 265.826 316.384 266.372 316.384H278.244C278.79 316.384 279.233 315.941 279.233 315.395V303.532C279.233 302.986 278.79 302.544 278.244 302.544Z" fill="#BFBFBF"/>
<path d="M278.244 302.544H266.372C265.826 302.544 265.383 302.986 265.383 303.532V315.395C265.383 315.941 265.826 316.384 266.372 316.384H278.244C278.79 316.384 279.233 315.941 279.233 315.395V303.532C279.233 302.986 278.79 302.544 278.244 302.544Z" stroke="#808080" stroke-width="1.66667" stroke-linecap="round" stroke-linejoin="round"/>
</g>
<g style="mix-blend-mode:multiply" opacity="0.33">
<path d="M299.65 302.544H287.779C287.232 302.544 286.79 302.986 286.79 303.532V315.395C286.79 315.941 287.232 316.384 287.779 316.384H299.65C300.197 316.384 300.639 315.941 300.639 315.395V303.532C300.639 302.986 300.197 302.544 299.65 302.544Z" fill="#BFBFBF"/>
<path d="M299.65 302.544H287.779C287.232 302.544 286.79 302.986 286.79 303.532V315.395C286.79 315.941 287.232 316.384 287.779 316.384H299.65C300.197 316.384 300.639 315.941 300.639 315.395V303.532C300.639 302.986 300.197 302.544 299.65 302.544Z" stroke="#808080" stroke-width="1.66667" stroke-linecap="round" stroke-linejoin="round"/>
</g>
<g style="mix-blend-mode:multiply" opacity="0.33">
<path d="M321.056 302.544H309.185C308.639 302.544 308.195 302.986 308.195 303.532V315.395C308.195 315.941 308.639 316.384 309.185 316.384H321.056C321.603 316.384 322.046 315.941 322.046 315.395V303.532C322.046 302.986 321.603 302.544 321.056 302.544Z" fill="#BFBFBF"/>
<path d="M321.056 302.544H309.185C308.639 302.544 308.195 302.986 308.195 303.532V315.395C308.195 315.941 308.639 316.384 309.185 316.384H321.056C321.603 316.384 322.046 315.941 322.046 315.395V303.532C322.046 302.986 321.603 302.544 321.056 302.544Z" stroke="#808080" stroke-width="1.66667" stroke-linecap="round" stroke-linejoin="round"/>
</g>
<g style="mix-blend-mode:multiply" opacity="0.33">
<path d="M342.463 302.544H330.592C330.046 302.544 329.603 302.986 329.603 303.532V315.395C329.603 315.941 330.046 316.384 330.592 316.384H342.463C343.01 316.384 343.453 315.941 343.453 315.395V303.532C343.453 302.986 343.01 302.544 342.463 302.544Z" fill="#BFBFBF"/>
<path d="M342.463 302.544H330.592C330.046 302.544 329.603 302.986 329.603 303.532V315.395C329.603 315.941 330.046 316.384 330.592 316.384H342.463C343.01 316.384 343.453 315.941 343.453 315.395V303.532C343.453 302.986 343.01 302.544 342.463 302.544Z" stroke="#808080" stroke-width="1.66667" stroke-linecap="round" stroke-linejoin="round"/>
</g>
<g style="mix-blend-mode:multiply" opacity="0.33">
<path d="M389.413 302.544H353.799C353.252 302.544 352.81 302.986 352.81 303.532V315.395C352.81 315.941 353.252 316.384 353.799 316.384H389.413C389.959 316.384 390.402 315.941 390.402 315.395V303.532C390.402 302.986 389.959 302.544 389.413 302.544Z" fill="#BFBFBF"/>
<path d="M389.413 302.544H353.799C353.252 302.544 352.81 302.986 352.81 303.532V315.395C352.81 315.941 353.252 316.384 353.799 316.384H389.413C389.959 316.384 390.402 315.941 390.402 315.395V303.532C390.402 302.986 389.959 302.544 389.413 302.544Z" stroke="#808080" stroke-width="1.66667" stroke-linecap="round" stroke-linejoin="round"/>
</g>
<g style="mix-blend-mode:multiply" opacity="0.33">
<path d="M227.695 282.297H215.824C215.278 282.297 214.835 282.74 214.835 283.286V295.149C214.835 295.695 215.278 296.138 215.824 296.138H227.695C228.242 296.138 228.684 295.695 228.684 295.149V283.286C228.684 282.74 228.242 282.297 227.695 282.297Z" fill="#BFBFBF"/>
<path d="M227.695 282.297H215.824C215.278 282.297 214.835 282.74 214.835 283.286V295.149C214.835 295.695 215.278 296.138 215.824 296.138H227.695C228.242 296.138 228.684 295.695 228.684 295.149V283.286C228.684 282.74 228.242 282.297 227.695 282.297Z" stroke="#808080" stroke-width="1.66667" stroke-linecap="round" stroke-linejoin="round"/>
</g>
<g style="mix-blend-mode:multiply" opacity="0.33">
<path d="M206.288 282.297H182.545C181.999 282.297 181.557 282.74 181.557 283.286V295.149C181.557 295.695 181.999 296.138 182.545 296.138H206.288C206.835 296.138 207.278 295.695 207.278 295.149V283.286C207.278 282.74 206.835 282.297 206.288 282.297Z" fill="#BFBFBF"/>
<path d="M206.288 282.297H182.545C181.999 282.297 181.557 282.74 181.557 283.286V295.149C181.557 295.695 181.999 296.138 182.545 296.138H206.288C206.835 296.138 207.278 295.695 207.278 295.149V283.286C207.278 282.74 206.835 282.297 206.288 282.297Z" stroke="#808080" stroke-width="1.66667" stroke-linecap="round" stroke-linejoin="round"/>
</g>
<g style="mix-blend-mode:multiply" opacity="0.33">
<path d="M249.101 282.297H237.23C236.684 282.297 236.241 282.74 236.241 283.286V295.149C236.241 295.695 236.684 296.138 237.23 296.138H249.101C249.648 296.138 250.091 295.695 250.091 295.149V283.286C250.091 282.74 249.648 282.297 249.101 282.297Z" fill="#BFBFBF"/>
<path d="M249.101 282.297H237.23C236.684 282.297 236.241 282.74 236.241 283.286V295.149C236.241 295.695 236.684 296.138 237.23 296.138H249.101C249.648 296.138 250.091 295.695 250.091 295.149V283.286C250.091 282.74 249.648 282.297 249.101 282.297Z" stroke="#808080" stroke-width="1.66667" stroke-linecap="round" stroke-linejoin="round"/>
</g>
<g style="mix-blend-mode:multiply" opacity="0.33">
<path d="M270.508 282.297H258.637C258.09 282.297 257.647 282.74 257.647 283.286V295.149C257.647 295.695 258.09 296.138 258.637 296.138H270.508C271.054 296.138 271.497 295.695 271.497 295.149V283.286C271.497 282.74 271.054 282.297 270.508 282.297Z" fill="#BFBFBF"/>
<path d="M270.508 282.297H258.637C258.09 282.297 257.647 282.74 257.647 283.286V295.149C257.647 295.695 258.09 296.138 258.637 296.138H270.508C271.054 296.138 271.497 295.695 271.497 295.149V283.286C271.497 282.74 271.054 282.297 270.508 282.297Z" stroke="#808080" stroke-width="1.66667" stroke-linecap="round" stroke-linejoin="round"/>
</g>
<g style="mix-blend-mode:multiply" opacity="0.33">
<path d="M291.914 282.297H280.043C279.497 282.297 279.054 282.74 279.054 283.286V295.149C279.054 295.695 279.497 296.138 280.043 296.138H291.914C292.461 296.138 292.903 295.695 292.903 295.149V283.286C292.903 282.74 292.461 282.297 291.914 282.297Z" fill="#BFBFBF"/>
<path d="M291.914 282.297H280.043C279.497 282.297 279.054 282.74 279.054 283.286V295.149C279.054 295.695 279.497 296.138 280.043 296.138H291.914C292.461 296.138 292.903 295.695 292.903 295.149V283.286C292.903 282.74 292.461 282.297 291.914 282.297Z" stroke="#808080" stroke-width="1.66667" stroke-linecap="round" stroke-linejoin="round"/>
</g>
<g style="mix-blend-mode:multiply" opacity="0.33">
<path d="M313.322 282.297H301.45C300.904 282.297 300.461 282.74 300.461 283.286V295.149C300.461 295.695 300.904 296.138 301.45 296.138H313.322C313.868 296.138 314.31 295.695 314.31 295.149V283.286C314.31 282.74 313.868 282.297 313.322 282.297Z" fill="#BFBFBF"/>
<path d="M313.322 282.297H301.45C300.904 282.297 300.461 282.74 300.461 283.286V295.149C300.461 295.695 300.904 296.138 301.45 296.138H313.322C313.868 296.138 314.31 295.695 314.31 295.149V283.286C314.31 282.74 313.868 282.297 313.322 282.297Z" stroke="#808080" stroke-width="1.66667" stroke-linecap="round" stroke-linejoin="round"/>
</g>
<g style="mix-blend-mode:multiply" opacity="0.33">
<path d="M334.728 282.297H322.857C322.311 282.297 321.867 282.74 321.867 283.286V295.149C321.867 295.695 322.311 296.138 322.857 296.138H334.728C335.275 296.138 335.717 295.695 335.717 295.149V283.286C335.717 282.74 335.275 282.297 334.728 282.297Z" fill="#BFBFBF"/>
<path d="M334.728 282.297H322.857C322.311 282.297 321.867 282.74 321.867 283.286V295.149C321.867 295.695 322.311 296.138 322.857 296.138H334.728C335.275 296.138 335.717 295.695 335.717 295.149V283.286C335.717 282.74 335.275 282.297 334.728 282.297Z" stroke="#808080" stroke-width="1.66667" stroke-linecap="round" stroke-linejoin="round"/>
</g>
<g style="mix-blend-mode:multiply" opacity="0.33">
<path d="M356.134 282.297H344.263C343.716 282.297 343.274 282.74 343.274 283.286V295.149C343.274 295.695 343.716 296.138 344.263 296.138H356.134C356.68 296.138 357.124 295.695 357.124 295.149V283.286C357.124 282.74 356.68 282.297 356.134 282.297Z" fill="#BFBFBF"/>
<path d="M356.134 282.297H344.263C343.716 282.297 343.274 282.74 343.274 283.286V295.149C343.274 295.695 343.716 296.138 344.263 296.138H356.134C356.68 296.138 357.124 295.695 357.124 295.149V283.286C357.124 282.74 356.68 282.297 356.134 282.297Z" stroke="#808080" stroke-width="1.66667" stroke-linecap="round" stroke-linejoin="round"/>
</g>
<g style="mix-blend-mode:multiply" opacity="0.33">
<path d="M389.413 282.297H365.67C365.124 282.297 364.681 282.74 364.681 283.286V295.149C364.681 295.695 365.124 296.138 365.67 296.138H389.413C389.959 296.138 390.402 295.695 390.402 295.149V283.286C390.402 282.74 389.959 282.297 389.413 282.297Z" fill="#BFBFBF"/>
<path d="M389.413 282.297H365.67C365.124 282.297 364.681 282.74 364.681 283.286V295.149C364.681 295.695 365.124 296.138 365.67 296.138H389.413C389.959 296.138 390.402 295.695 390.402 295.149V283.286C390.402 282.74 389.959 282.297 389.413 282.297Z" stroke="#808080" stroke-width="1.66667" stroke-linecap="round" stroke-linejoin="round"/>
</g>
<g style="mix-blend-mode:multiply" opacity="0.33">
<path d="M216.083 262.921H204.212C203.666 262.921 203.223 263.363 203.223 263.909V275.773C203.223 276.319 203.666 276.761 204.212 276.761H216.083C216.63 276.761 217.073 276.319 217.073 275.773V263.909C217.073 263.363 216.63 262.921 216.083 262.921Z" fill="#BFBFBF"/>
<path d="M216.083 262.921H204.212C203.666 262.921 203.223 263.363 203.223 263.909V275.773C203.223 276.319 203.666 276.761 204.212 276.761H216.083C216.63 276.761 217.073 276.319 217.073 275.773V263.909C217.073 263.363 216.63 262.921 216.083 262.921Z" stroke="#808080" stroke-width="1.66667" stroke-linecap="round" stroke-linejoin="round"/>
</g>
<g style="mix-blend-mode:multiply" opacity="0.33">
<path d="M194.417 262.921H182.545C181.999 262.921 181.557 263.363 181.557 263.909V275.773C181.557 276.319 181.999 276.761 182.545 276.761H194.417C194.963 276.761 195.406 276.319 195.406 275.773V263.909C195.406 263.363 194.963 262.921 194.417 262.921Z" fill="#BFBFBF"/>
<path d="M194.417 262.921H182.545C181.999 262.921 181.557 263.363 181.557 263.909V275.773C181.557 276.319 181.999 276.761 182.545 276.761H194.417C194.963 276.761 195.406 276.319 195.406 275.773V263.909C195.406 263.363 194.963 262.921 194.417 262.921Z" stroke="#808080" stroke-width="1.66667" stroke-linecap="round" stroke-linejoin="round"/>
</g>
<g style="mix-blend-mode:multiply" opacity="0.33">
<path d="M237.749 262.921H225.878C225.332 262.921 224.888 263.363 224.888 263.909V275.773C224.888 276.319 225.332 276.761 225.878 276.761H237.749C238.296 276.761 238.739 276.319 238.739 275.773V263.909C238.739 263.363 238.296 262.921 237.749 262.921Z" fill="#BFBFBF"/>
<path d="M237.749 262.921H225.878C225.332 262.921 224.888 263.363 224.888 263.909V275.773C224.888 276.319 225.332 276.761 225.878 276.761H237.749C238.296 276.761 238.739 276.319 238.739 275.773V263.909C238.739 263.363 238.296 262.921 237.749 262.921Z" stroke="#808080" stroke-width="1.66667" stroke-linecap="round" stroke-linejoin="round"/>
</g>
<g style="mix-blend-mode:multiply" opacity="0.33">
<path d="M259.415 262.921H247.544C246.998 262.921 246.555 263.363 246.555 263.909V275.773C246.555 276.319 246.998 276.761 247.544 276.761H259.415C259.962 276.761 260.405 276.319 260.405 275.773V263.909C260.405 263.363 259.962 262.921 259.415 262.921Z" fill="#BFBFBF"/>
<path d="M259.415 262.921H247.544C246.998 262.921 246.555 263.363 246.555 263.909V275.773C246.555 276.319 246.998 276.761 247.544 276.761H259.415C259.962 276.761 260.405 276.319 260.405 275.773V263.909C260.405 263.363 259.962 262.921 259.415 262.921Z" stroke="#808080" stroke-width="1.66667" stroke-linecap="round" stroke-linejoin="round"/>
</g>
<g style="mix-blend-mode:multiply" opacity="0.33">
<path d="M281.081 262.921H269.21C268.664 262.921 268.221 263.363 268.221 263.909V275.773C268.221 276.319 268.664 276.761 269.21 276.761H281.081C281.628 276.761 282.071 276.319 282.071 275.773V263.909C282.071 263.363 281.628 262.921 281.081 262.921Z" fill="#BFBFBF"/>
<path d="M281.081 262.921H269.21C268.664 262.921 268.221 263.363 268.221 263.909V275.773C268.221 276.319 268.664 276.761 269.21 276.761H281.081C281.628 276.761 282.071 276.319 282.071 275.773V263.909C282.071 263.363 281.628 262.921 281.081 262.921Z" stroke="#808080" stroke-width="1.66667" stroke-linecap="round" stroke-linejoin="round"/>
</g>
<g style="mix-blend-mode:multiply" opacity="0.33">
<path d="M302.748 262.921H290.876C290.33 262.921 289.888 263.363 289.888 263.909V275.773C289.888 276.319 290.33 276.761 290.876 276.761H302.748C303.294 276.761 303.737 276.319 303.737 275.773V263.909C303.737 263.363 303.294 262.921 302.748 262.921Z" fill="#BFBFBF"/>
<path d="M302.748 262.921H290.876C290.33 262.921 289.888 263.363 289.888 263.909V275.773C289.888 276.319 290.33 276.761 290.876 276.761H302.748C303.294 276.761 303.737 276.319 303.737 275.773V263.909C303.737 263.363 303.294 262.921 302.748 262.921Z" stroke="#808080" stroke-width="1.66667" stroke-linecap="round" stroke-linejoin="round"/>
</g>
<g style="mix-blend-mode:multiply" opacity="0.33">
<path d="M324.414 262.921H312.543C311.996 262.921 311.553 263.363 311.553 263.909V275.773C311.553 276.319 311.996 276.761 312.543 276.761H324.414C324.96 276.761 325.404 276.319 325.404 275.773V263.909C325.404 263.363 324.96 262.921 324.414 262.921Z" fill="#BFBFBF"/>
<path d="M324.414 262.921H312.543C311.996 262.921 311.553 263.363 311.553 263.909V275.773C311.553 276.319 311.996 276.761 312.543 276.761H324.414C324.96 276.761 325.404 276.319 325.404 275.773V263.909C325.404 263.363 324.96 262.921 324.414 262.921Z" stroke="#808080" stroke-width="1.66667" stroke-linecap="round" stroke-linejoin="round"/>
</g>
<g style="mix-blend-mode:multiply" opacity="0.33">
<path d="M346.08 262.921H334.208C333.662 262.921 333.22 263.363 333.22 263.909V275.773C333.22 276.319 333.662 276.761 334.208 276.761H346.08C346.626 276.761 347.069 276.319 347.069 275.773V263.909C347.069 263.363 346.626 262.921 346.08 262.921Z" fill="#BFBFBF"/>
<path d="M346.08 262.921H334.208C333.662 262.921 333.22 263.363 333.22 263.909V275.773C333.22 276.319 333.662 276.761 334.208 276.761H346.08C346.626 276.761 347.069 276.319 347.069 275.773V263.909C347.069 263.363 346.626 262.921 346.08 262.921Z" stroke="#808080" stroke-width="1.66667" stroke-linecap="round" stroke-linejoin="round"/>
</g>
<g style="mix-blend-mode:multiply" opacity="0.33">
<path d="M367.746 262.921H355.875C355.328 262.921 354.885 263.363 354.885 263.909V275.773C354.885 276.319 355.328 276.761 355.875 276.761H367.746C368.292 276.761 368.736 276.319 368.736 275.773V263.909C368.736 263.363 368.292 262.921 367.746 262.921Z" fill="#BFBFBF"/>
<path d="M367.746 262.921H355.875C355.328 262.921 354.885 263.363 354.885 263.909V275.773C354.885 276.319 355.328 276.761 355.875 276.761H367.746C368.292 276.761 368.736 276.319 368.736 275.773V263.909C368.736 263.363 368.292 262.921 367.746 262.921Z" stroke="#808080" stroke-width="1.66667" stroke-linecap="round" stroke-linejoin="round"/>
</g>
<g style="mix-blend-mode:multiply" opacity="0.33">
<path d="M389.413 262.921H377.541C376.995 262.921 376.552 263.363 376.552 263.909V275.773C376.552 276.319 376.995 276.761 377.541 276.761H389.413C389.959 276.761 390.402 276.319 390.402 275.773V263.909C390.402 263.363 389.959 262.921 389.413 262.921Z" fill="#BFBFBF"/>
<path d="M389.413 262.921H377.541C376.995 262.921 376.552 263.363 376.552 263.909V275.773C376.552 276.319 376.995 276.761 377.541 276.761H389.413C389.959 276.761 390.402 276.319 390.402 275.773V263.909C390.402 263.363 389.959 262.921 389.413 262.921Z" stroke="#808080" stroke-width="1.66667" stroke-linecap="round" stroke-linejoin="round"/>
</g>
<g style="mix-blend-mode:multiply" opacity="0.33">
<path d="M215.824 322.237H203.953C203.406 322.237 202.964 322.68 202.964 323.226V335.089C202.964 335.635 203.406 336.078 203.953 336.078H215.824C216.37 336.078 216.813 335.635 216.813 335.089V323.226C216.813 322.68 216.37 322.237 215.824 322.237Z" fill="#BFBFBF"/>
</g>
<g style="mix-blend-mode:multiply" opacity="0.33">
<path d="M194.417 322.237H182.545C181.999 322.237 181.557 322.68 181.557 323.226V335.089C181.557 335.635 181.999 336.078 182.545 336.078H194.417C194.963 336.078 195.406 335.635 195.406 335.089V323.226C195.406 322.68 194.963 322.237 194.417 322.237Z" fill="#BFBFBF"/>
</g>
<g style="mix-blend-mode:multiply" opacity="0.33">
<path d="M322.856 322.237H225.359C224.813 322.237 224.37 322.68 224.37 323.226V335.089C224.37 335.635 224.813 336.078 225.359 336.078H322.856C323.402 336.078 323.846 335.635 323.846 335.089V323.226C323.846 322.68 323.402 322.237 322.856 322.237Z" fill="#BFBFBF"/>
</g>
<g style="mix-blend-mode:multiply" opacity="0.33">
<path d="M344.263 322.237H332.392C331.845 322.237 331.402 322.68 331.402 323.226V335.089C331.402 335.635 331.845 336.078 332.392 336.078H344.263C344.809 336.078 345.253 335.635 345.253 335.089V323.226C345.253 322.68 344.809 322.237 344.263 322.237Z" fill="#BFBFBF"/>
</g>
<g style="mix-blend-mode:multiply" opacity="0.33">
<path d="M375.563 330.023H367.648C367.102 330.023 366.659 330.465 366.659 331.012V335.089C366.659 335.635 367.102 336.078 367.648 336.078H375.563C376.109 336.078 376.552 335.635 376.552 335.089V331.012C376.552 330.465 376.109 330.023 375.563 330.023Z" fill="#BFBFBF"/>
</g>
<g style="mix-blend-mode:multiply" opacity="0.33">
<path d="M375.563 322.237H367.648C367.102 322.237 366.659 322.68 366.659 323.226V327.304C366.659 327.85 367.102 328.293 367.648 328.293H375.563C376.109 328.293 376.552 327.85 376.552 327.304V323.226C376.552 322.68 376.109 322.237 375.563 322.237Z" fill="#BFBFBF"/>
</g>
<g style="mix-blend-mode:multiply" opacity="0.33">
<path d="M389.412 330.023H381.498C380.952 330.023 380.509 330.465 380.509 331.012V335.089C380.509 335.635 380.952 336.078 381.498 336.078H389.412C389.959 336.078 390.402 335.635 390.402 335.089V331.012C390.402 330.465 389.959 330.023 389.412 330.023Z" fill="#BFBFBF"/>
</g>
<g style="mix-blend-mode:multiply" opacity="0.33">
<path d="M361.713 330.023H353.799C353.252 330.023 352.81 330.465 352.81 331.012V335.089C352.81 335.635 353.252 336.078 353.799 336.078H361.713C362.259 336.078 362.702 335.635 362.702 335.089V331.012C362.702 330.465 362.259 330.023 361.713 330.023Z" fill="#BFBFBF"/>
</g>
<g style="mix-blend-mode:multiply" opacity="0.33">
<path d="M213.845 302.544H182.545C181.999 302.544 181.557 302.986 181.557 303.532V315.395C181.557 315.941 181.999 316.384 182.545 316.384H213.845C214.391 316.384 214.835 315.941 214.835 315.395V303.532C214.835 302.986 214.391 302.544 213.845 302.544Z" fill="#BFBFBF"/>
</g>
<g style="mix-blend-mode:multiply" opacity="0.33">
<path d="M235.43 302.544H223.559C223.012 302.544 222.57 302.986 222.57 303.532V315.395C222.57 315.941 223.012 316.384 223.559 316.384H235.43C235.976 316.384 236.42 315.941 236.42 315.395V303.532C236.42 302.986 235.976 302.544 235.43 302.544Z" fill="#BFBFBF"/>
</g>
<g style="mix-blend-mode:multiply" opacity="0.33">
<path d="M256.837 302.544H244.966C244.42 302.544 243.977 302.986 243.977 303.532V315.395C243.977 315.941 244.42 316.384 244.966 316.384H256.837C257.384 316.384 257.827 315.941 257.827 315.395V303.532C257.827 302.986 257.384 302.544 256.837 302.544Z" fill="#BFBFBF"/>
</g>
<g style="mix-blend-mode:multiply" opacity="0.33">
<path d="M278.244 302.544H266.372C265.826 302.544 265.383 302.986 265.383 303.532V315.395C265.383 315.941 265.826 316.384 266.372 316.384H278.244C278.79 316.384 279.233 315.941 279.233 315.395V303.532C279.233 302.986 278.79 302.544 278.244 302.544Z" fill="#BFBFBF"/>
</g>
<g style="mix-blend-mode:multiply" opacity="0.33">
<path d="M299.65 302.544H287.779C287.232 302.544 286.79 302.986 286.79 303.532V315.395C286.79 315.941 287.232 316.384 287.779 316.384H299.65C300.197 316.384 300.639 315.941 300.639 315.395V303.532C300.639 302.986 300.197 302.544 299.65 302.544Z" fill="#BFBFBF"/>
</g>
<g style="mix-blend-mode:multiply" opacity="0.33">
<path d="M321.056 302.544H309.185C308.639 302.544 308.195 302.986 308.195 303.532V315.395C308.195 315.941 308.639 316.384 309.185 316.384H321.056C321.603 316.384 322.046 315.941 322.046 315.395V303.532C322.046 302.986 321.603 302.544 321.056 302.544Z" fill="#BFBFBF"/>
</g>
<g style="mix-blend-mode:multiply" opacity="0.33">
<path d="M342.463 302.544H330.592C330.046 302.544 329.603 302.986 329.603 303.532V315.395C329.603 315.941 330.046 316.384 330.592 316.384H342.463C343.01 316.384 343.453 315.941 343.453 315.395V303.532C343.453 302.986 343.01 302.544 342.463 302.544Z" fill="#BFBFBF"/>
</g>
<g style="mix-blend-mode:multiply" opacity="0.33">
<path d="M389.413 302.544H353.799C353.252 302.544 352.81 302.986 352.81 303.532V315.395C352.81 315.941 353.252 316.384 353.799 316.384H389.413C389.959 316.384 390.402 315.941 390.402 315.395V303.532C390.402 302.986 389.959 302.544 389.413 302.544Z" fill="#BFBFBF"/>
</g>
<g style="mix-blend-mode:multiply" opacity="0.33">
<path d="M227.695 282.297H215.824C215.278 282.297 214.835 282.74 214.835 283.286V295.149C214.835 295.695 215.278 296.138 215.824 296.138H227.695C228.242 296.138 228.684 295.695 228.684 295.149V283.286C228.684 282.74 228.242 282.297 227.695 282.297Z" fill="#BFBFBF"/>
</g>
<g style="mix-blend-mode:multiply" opacity="0.33">
<path d="M206.288 282.297H182.545C181.999 282.297 181.557 282.74 181.557 283.286V295.149C181.557 295.695 181.999 296.138 182.545 296.138H206.288C206.835 296.138 207.278 295.695 207.278 295.149V283.286C207.278 282.74 206.835 282.297 206.288 282.297Z" fill="#BFBFBF"/>
</g>
<g style="mix-blend-mode:multiply" opacity="0.33">
<path d="M249.101 282.297H237.23C236.684 282.297 236.241 282.74 236.241 283.286V295.149C236.241 295.695 236.684 296.138 237.23 296.138H249.101C249.648 296.138 250.091 295.695 250.091 295.149V283.286C250.091 282.74 249.648 282.297 249.101 282.297Z" fill="#BFBFBF"/>
</g>
<g style="mix-blend-mode:multiply" opacity="0.33">
<path d="M270.508 282.297H258.637C258.09 282.297 257.647 282.74 257.647 283.286V295.149C257.647 295.695 258.09 296.138 258.637 296.138H270.508C271.054 296.138 271.497 295.695 271.497 295.149V283.286C271.497 282.74 271.054 282.297 270.508 282.297Z" fill="#BFBFBF"/>
</g>
<g style="mix-blend-mode:multiply" opacity="0.33">
<path d="M291.914 282.297H280.043C279.497 282.297 279.054 282.74 279.054 283.286V295.149C279.054 295.695 279.497 296.138 280.043 296.138H291.914C292.461 296.138 292.903 295.695 292.903 295.149V283.286C292.903 282.74 292.461 282.297 291.914 282.297Z" fill="#BFBFBF"/>
</g>
<g style="mix-blend-mode:multiply" opacity="0.33">
<path d="M313.322 282.297H301.45C300.904 282.297 300.461 282.74 300.461 283.286V295.149C300.461 295.695 300.904 296.138 301.45 296.138H313.322C313.868 296.138 314.31 295.695 314.31 295.149V283.286C314.31 282.74 313.868 282.297 313.322 282.297Z" fill="#BFBFBF"/>
</g>
<g style="mix-blend-mode:multiply" opacity="0.33">
<path d="M334.728 282.297H322.857C322.311 282.297 321.867 282.74 321.867 283.286V295.149C321.867 295.695 322.311 296.138 322.857 296.138H334.728C335.275 296.138 335.717 295.695 335.717 295.149V283.286C335.717 282.74 335.275 282.297 334.728 282.297Z" fill="#BFBFBF"/>
</g>
<g style="mix-blend-mode:multiply" opacity="0.33">
<path d="M356.134 282.297H344.263C343.716 282.297 343.274 282.74 343.274 283.286V295.149C343.274 295.695 343.716 296.138 344.263 296.138H356.134C356.68 296.138 357.124 295.695 357.124 295.149V283.286C357.124 282.74 356.68 282.297 356.134 282.297Z" fill="#BFBFBF"/>
</g>
<g style="mix-blend-mode:multiply" opacity="0.33">
<path d="M389.413 282.297H365.67C365.124 282.297 364.681 282.74 364.681 283.286V295.149C364.681 295.695 365.124 296.138 365.67 296.138H389.413C389.959 296.138 390.402 295.695 390.402 295.149V283.286C390.402 282.74 389.959 282.297 389.413 282.297Z" fill="#BFBFBF"/>
</g>
<g style="mix-blend-mode:multiply" opacity="0.33">
<path d="M216.083 262.921H204.212C203.666 262.921 203.223 263.363 203.223 263.909V275.773C203.223 276.319 203.666 276.761 204.212 276.761H216.083C216.63 276.761 217.073 276.319 217.073 275.773V263.909C217.073 263.363 216.63 262.921 216.083 262.921Z" fill="#BFBFBF"/>
</g>
<g style="mix-blend-mode:multiply" opacity="0.33">
<path d="M194.417 262.921H182.545C181.999 262.921 181.557 263.363 181.557 263.909V275.773C181.557 276.319 181.999 276.761 182.545 276.761H194.417C194.963 276.761 195.406 276.319 195.406 275.773V263.909C195.406 263.363 194.963 262.921 194.417 262.921Z" fill="#BFBFBF"/>
</g>
<g style="mix-blend-mode:multiply" opacity="0.33">
<path d="M237.749 262.921H225.878C225.332 262.921 224.888 263.363 224.888 263.909V275.773C224.888 276.319 225.332 276.761 225.878 276.761H237.749C238.296 276.761 238.739 276.319 238.739 275.773V263.909C238.739 263.363 238.296 262.921 237.749 262.921Z" fill="#BFBFBF"/>
</g>
<g style="mix-blend-mode:multiply" opacity="0.33">
<path d="M259.415 262.921H247.544C246.998 262.921 246.555 263.363 246.555 263.909V275.773C246.555 276.319 246.998 276.761 247.544 276.761H259.415C259.962 276.761 260.405 276.319 260.405 275.773V263.909C260.405 263.363 259.962 262.921 259.415 262.921Z" fill="#BFBFBF"/>
</g>
<g style="mix-blend-mode:multiply" opacity="0.33">
<path d="M281.081 262.921H269.21C268.664 262.921 268.221 263.363 268.221 263.909V275.773C268.221 276.319 268.664 276.761 269.21 276.761H281.081C281.628 276.761 282.071 276.319 282.071 275.773V263.909C282.071 263.363 281.628 262.921 281.081 262.921Z" fill="#BFBFBF"/>
</g>
<g style="mix-blend-mode:multiply" opacity="0.33">
<path d="M302.748 262.921H290.876C290.33 262.921 289.888 263.363 289.888 263.909V275.773C289.888 276.319 290.33 276.761 290.876 276.761H302.748C303.294 276.761 303.737 276.319 303.737 275.773V263.909C303.737 263.363 303.294 262.921 302.748 262.921Z" fill="#BFBFBF"/>
</g>
<g style="mix-blend-mode:multiply" opacity="0.33">
<path d="M324.414 262.921H312.543C311.996 262.921 311.553 263.363 311.553 263.909V275.773C311.553 276.319 311.996 276.761 312.543 276.761H324.414C324.96 276.761 325.404 276.319 325.404 275.773V263.909C325.404 263.363 324.96 262.921 324.414 262.921Z" fill="#BFBFBF"/>
</g>
<g style="mix-blend-mode:multiply" opacity="0.33">
<path d="M346.08 262.921H334.208C333.662 262.921 333.22 263.363 333.22 263.909V275.773C333.22 276.319 333.662 276.761 334.208 276.761H346.08C346.626 276.761 347.069 276.319 347.069 275.773V263.909C347.069 263.363 346.626 262.921 346.08 262.921Z" fill="#BFBFBF"/>
</g>
<g style="mix-blend-mode:multiply" opacity="0.33">
<path d="M367.746 262.921H355.875C355.328 262.921 354.885 263.363 354.885 263.909V275.773C354.885 276.319 355.328 276.761 355.875 276.761H367.746C368.292 276.761 368.736 276.319 368.736 275.773V263.909C368.736 263.363 368.292 262.921 367.746 262.921Z" fill="#BFBFBF"/>
</g>
<g style="mix-blend-mode:multiply" opacity="0.33">
<path d="M389.413 262.921H377.541C376.995 262.921 376.552 263.363 376.552 263.909V275.773C376.552 276.319 376.995 276.761 377.541 276.761H389.413C389.959 276.761 390.402 276.319 390.402 275.773V263.909C390.402 263.363 389.959 262.921 389.413 262.921Z" fill="#BFBFBF"/>
</g>
<g style="mix-blend-mode:multiply" opacity="0.33">
<path d="M201.89 231.379H370.067V244.673C370.067 245.721 369.65 246.727 368.908 247.468C368.166 248.21 367.159 248.627 366.11 248.627H205.847C204.798 248.627 203.791 248.21 203.049 247.468C202.307 246.727 201.89 245.721 201.89 244.673V231.379Z" fill="#BFBFBF"/>
</g>
<g style="mix-blend-mode:multiply" opacity="0.25">
<path d="M366.11 244.671H205.847C204.798 244.671 203.791 244.255 203.049 243.513C202.307 242.771 201.89 241.765 201.89 240.717V244.671C201.89 245.72 202.307 246.726 203.049 247.467C203.791 248.209 204.798 248.626 205.847 248.626H366.11C367.159 248.626 368.166 248.209 368.908 247.467C369.65 246.726 370.067 245.72 370.067 244.671V240.717C370.067 241.765 369.65 242.771 368.908 243.513C368.166 244.255 367.159 244.671 366.11 244.671Z" fill="#BFBFBF"/>
</g>
<g style="mix-blend-mode:multiply" opacity="0.33">
<path d="M201.89 231.379H370.067V244.673C370.067 245.721 369.65 246.727 368.908 247.468C368.166 248.21 367.159 248.627 366.11 248.627H205.847C204.798 248.627 203.791 248.21 203.049 247.468C202.307 246.727 201.89 245.721 201.89 244.673V231.379Z" fill="#BFBFBF"/>
<path d="M201.89 231.379H370.067V244.673C370.067 245.721 369.65 246.727 368.908 247.468C368.166 248.21 367.159 248.627 366.11 248.627H205.847C204.798 248.627 203.791 248.21 203.049 247.468C202.307 246.727 201.89 245.721 201.89 244.673V231.379Z" stroke="black" stroke-width="3.33333" stroke-linecap="round" stroke-linejoin="round"/>
</g>
<g style="mix-blend-mode:multiply" opacity="0.33">
<path d="M320.604 349.424H251.355C250.262 349.424 249.376 350.31 249.376 351.402V397.867C249.376 398.958 250.262 399.844 251.355 399.844H320.604C321.697 399.844 322.583 398.958 322.583 397.867V351.402C322.583 350.31 321.697 349.424 320.604 349.424Z" fill="#BFBFBF"/>
</g>
<g style="mix-blend-mode:multiply" opacity="0.33">
<path d="M320.604 349.424H251.355C250.262 349.424 249.376 350.31 249.376 351.402V397.867C249.376 398.958 250.262 399.844 251.355 399.844H320.604C321.697 399.844 322.583 398.958 322.583 397.867V351.402C322.583 350.31 321.697 349.424 320.604 349.424Z" fill="#BFBFBF"/>
<path d="M320.604 349.424H251.355C250.262 349.424 249.376 350.31 249.376 351.402V397.867C249.376 398.958 250.262 399.844 251.355 399.844H320.604C321.697 399.844 322.583 398.958 322.583 397.867V351.402C322.583 350.31 321.697 349.424 320.604 349.424Z" stroke="#808080" stroke-width="1.66667" stroke-linecap="round" stroke-linejoin="round"/>
</g>
</g>
<path d="M392.87 68.8156H163.358C155.709 68.8156 149.508 75.0125 149.508 82.6564V217.109C149.508 224.753 155.709 230.949 163.358 230.949H392.87C400.519 230.949 406.72 224.753 406.72 217.109V82.6564C406.72 75.0125 400.519 68.8156 392.87 68.8156Z" stroke="black" stroke-width="1.66667" stroke-linecap="round" stroke-linejoin="round"/>
<path d="M392.87 68.8156H163.358C155.709 68.8156 149.508 75.0125 149.508 82.6564V217.109C149.508 224.753 155.709 230.949 163.358 230.949H392.87C400.519 230.949 406.72 224.753 406.72 217.109V82.6564C406.72 75.0125 400.519 68.8156 392.87 68.8156Z" fill="#808080"/>
<path d="M392.87 68.8156H163.358C155.709 68.8156 149.508 75.0125 149.508 82.6564V217.109C149.508 224.753 155.709 230.949 163.358 230.949H392.87C400.519 230.949 406.72 224.753 406.72 217.109V82.6564C406.72 75.0125 400.519 68.8156 392.87 68.8156Z" fill="#808080"/>
<g style="mix-blend-mode:multiply" opacity="0.17">
<path d="M392.87 68.8156H163.358C155.709 68.8156 149.508 75.0125 149.508 82.6564V208.227C149.508 215.871 155.709 222.068 163.358 222.068H392.87C400.519 222.068 406.72 215.871 406.72 208.227V82.6564C406.72 75.0125 400.519 68.8156 392.87 68.8156Z" fill="#808080"/>
</g>
<path opacity="0.1" d="M163.358 72.7664H392.87C396.543 72.7664 400.066 74.2242 402.663 76.8199C405.261 79.4156 406.72 82.936 406.72 86.6072V217.104V82.6523C406.72 78.9817 405.261 75.4612 402.663 72.8656C400.066 70.2699 396.543 68.8121 392.87 68.8121H163.358C159.684 68.8121 156.162 70.2699 153.565 72.8656C150.967 75.4612 149.508 78.9817 149.508 82.6523V86.6072C149.508 82.936 150.967 79.4156 153.565 76.8199C156.162 74.2242 159.684 72.7664 163.358 72.7664Z" fill="#F2F4F7"/>
<g opacity="0.1">
<path opacity="0.1" d="M227.885 230.949H243.782L361.657 68.8156H345.761L227.885 230.949Z" fill="#F2F4F7"/>
<path opacity="0.1" d="M252.953 230.949H257.844L375.72 68.8156H370.828L252.953 230.949Z" fill="#F2F4F7"/>
</g>
<path d="M392.87 68.8156H163.358C155.709 68.8156 149.508 75.0125 149.508 82.6564V217.109C149.508 224.753 155.709 230.949 163.358 230.949H392.87C400.519 230.949 406.72 224.753 406.72 217.109V82.6564C406.72 75.0125 400.519 68.8156 392.87 68.8156Z" stroke="black" stroke-width="6.66667" stroke-linecap="round" stroke-linejoin="round"/>
<path d="M388.913 211.651V87.085H167.315V211.651H388.913Z" fill="#3B6333"/>
<g opacity="0.06">
<path opacity="0.06" d="M242.905 211.651H258.801L349.364 87.085H333.467L242.905 211.651Z" fill="#F2F4F7"/>
<path opacity="0.06" d="M267.972 211.651H272.863L363.426 87.085H358.535L267.972 211.651Z" fill="#F2F4F7"/>
</g>
<path d="M388.913 211.651V87.085H167.315V211.651H388.913Z" stroke="black" stroke-width="1.66667" stroke-linecap="round" stroke-linejoin="round"/>
<path d="M392.87 230.949H163.358C155.709 230.949 149.508 237.146 149.508 244.79V387.151C149.508 394.795 155.709 400.992 163.358 400.992H392.87C400.519 400.992 406.72 394.795 406.72 387.151V244.79C406.72 237.146 400.519 230.949 392.87 230.949Z" fill="white"/>
<path d="M402.763 387.152V244.79C402.763 239.331 398.333 234.904 392.87 234.904H163.358C157.894 234.904 153.465 239.331 153.465 244.79V387.152C153.465 392.612 157.894 397.038 163.358 397.038H392.87C398.333 397.038 402.763 392.612 402.763 387.152Z" fill="#F2F4F7" stroke="white" stroke-width="3.33333" stroke-miterlimit="10"/>
<path d="M262.235 393.261H293.991C295.04 393.261 296.047 393.677 296.789 394.419C297.531 395.161 297.948 396.166 297.948 397.215V400.992H258.278V397.215C258.278 396.166 258.695 395.161 259.437 394.419C260.179 393.677 261.186 393.261 262.235 393.261Z" fill="white"/>
<path d="M392.87 230.949H163.358C155.709 230.949 149.508 237.146 149.508 244.79V387.151C149.508 394.795 155.709 400.992 163.358 400.992H392.87C400.519 400.992 406.72 394.795 406.72 387.151V244.79C406.72 237.146 400.519 230.949 392.87 230.949Z" stroke="black" stroke-width="6.66667" stroke-linecap="round" stroke-linejoin="round"/>
<path d="M388.913 244.216H167.314C165.676 244.216 164.347 245.543 164.347 247.182V332.203C164.347 333.841 165.676 335.169 167.314 335.169H388.913C390.552 335.169 391.881 333.841 391.881 332.203V247.182C391.881 245.543 390.552 244.216 388.913 244.216Z" fill="white"/>
<path d="M207.958 312.924H196.087C195.54 312.924 195.098 313.367 195.098 313.913V325.776C195.098 326.322 195.54 326.765 196.087 326.765H207.958C208.504 326.765 208.947 326.322 208.947 325.776V313.913C208.947 313.367 208.504 312.924 207.958 312.924Z" stroke="#808080" stroke-width="1.66667" stroke-linecap="round" stroke-linejoin="round"/>
<path d="M186.552 312.924H174.681C174.134 312.924 173.691 313.367 173.691 313.913V325.776C173.691 326.322 174.134 326.765 174.681 326.765H186.552C187.098 326.765 187.541 326.322 187.541 325.776V313.913C187.541 313.367 187.098 312.924 186.552 312.924Z" stroke="#808080" stroke-width="1.66667" stroke-linecap="round" stroke-linejoin="round"/>
<path d="M314.991 312.924H217.494C216.948 312.924 216.505 313.367 216.505 313.913V325.776C216.505 326.322 216.948 326.765 217.494 326.765H314.991C315.537 326.765 315.981 326.322 315.981 325.776V313.913C315.981 313.367 315.537 312.924 314.991 312.924Z" stroke="#808080" stroke-width="1.66667" stroke-linecap="round" stroke-linejoin="round"/>
<path d="M336.398 312.924H324.526C323.98 312.924 323.537 313.367 323.537 313.913V325.776C323.537 326.322 323.98 326.765 324.526 326.765H336.398C336.944 326.765 337.387 326.322 337.387 325.776V313.913C337.387 313.367 336.944 312.924 336.398 312.924Z" stroke="#808080" stroke-width="1.66667" stroke-linecap="round" stroke-linejoin="round"/>
<path d="M367.697 320.71H359.782C359.236 320.71 358.794 321.153 358.794 321.699V325.777C358.794 326.323 359.236 326.766 359.782 326.766H367.697C368.243 326.766 368.687 326.323 368.687 325.777V321.699C368.687 321.153 368.243 320.71 367.697 320.71Z" stroke="#808080" stroke-width="1.66667" stroke-linecap="round" stroke-linejoin="round"/>
<path d="M367.697 312.924H359.782C359.236 312.924 358.794 313.367 358.794 313.913V317.991C358.794 318.537 359.236 318.98 359.782 318.98H367.697C368.243 318.98 368.687 318.537 368.687 317.991V313.913C368.687 313.367 368.243 312.924 367.697 312.924Z" stroke="#808080" stroke-width="1.66667" stroke-linecap="round" stroke-linejoin="round"/>
<path d="M381.547 320.71H373.633C373.086 320.71 372.643 321.153 372.643 321.699V325.777C372.643 326.323 373.086 326.766 373.633 326.766H381.547C382.093 326.766 382.536 326.323 382.536 325.777V321.699C382.536 321.153 382.093 320.71 381.547 320.71Z" stroke="#808080" stroke-width="1.66667" stroke-linecap="round" stroke-linejoin="round"/>
<path d="M353.847 320.71H345.933C345.387 320.71 344.943 321.153 344.943 321.699V325.777C344.943 326.323 345.387 326.766 345.933 326.766H353.847C354.393 326.766 354.836 326.323 354.836 325.777V321.699C354.836 321.153 354.393 320.71 353.847 320.71Z" stroke="#808080" stroke-width="1.66667" stroke-linecap="round" stroke-linejoin="round"/>
<path d="M205.981 293.232H174.681C174.134 293.232 173.691 293.675 173.691 294.221V306.085C173.691 306.631 174.134 307.073 174.681 307.073H205.981C206.527 307.073 206.969 306.631 206.969 306.085V294.221C206.969 293.675 206.527 293.232 205.981 293.232Z" stroke="#808080" stroke-width="1.66667" stroke-linecap="round" stroke-linejoin="round"/>
<path d="M227.566 293.232H215.694C215.148 293.232 214.705 293.675 214.705 294.221V306.085C214.705 306.631 215.148 307.073 215.694 307.073H227.566C228.112 307.073 228.555 306.631 228.555 306.085V294.221C228.555 293.675 228.112 293.232 227.566 293.232Z" stroke="#808080" stroke-width="1.66667" stroke-linecap="round" stroke-linejoin="round"/>
<path d="M248.971 293.232H237.1C236.554 293.232 236.111 293.675 236.111 294.221V306.085C236.111 306.631 236.554 307.073 237.1 307.073H248.971C249.517 307.073 249.961 306.631 249.961 306.085V294.221C249.961 293.675 249.517 293.232 248.971 293.232Z" stroke="#808080" stroke-width="1.66667" stroke-linecap="round" stroke-linejoin="round"/>
<path d="M270.378 293.232H258.507C257.961 293.232 257.518 293.675 257.518 294.221V306.085C257.518 306.631 257.961 307.073 258.507 307.073H270.378C270.925 307.073 271.368 306.631 271.368 306.085V294.221C271.368 293.675 270.925 293.232 270.378 293.232Z" stroke="#808080" stroke-width="1.66667" stroke-linecap="round" stroke-linejoin="round"/>
<path d="M291.784 293.232H279.913C279.367 293.232 278.924 293.675 278.924 294.221V306.085C278.924 306.631 279.367 307.073 279.913 307.073H291.784C292.331 307.073 292.774 306.631 292.774 306.085V294.221C292.774 293.675 292.331 293.232 291.784 293.232Z" stroke="#808080" stroke-width="1.66667" stroke-linecap="round" stroke-linejoin="round"/>
<path d="M313.191 293.232H301.32C300.774 293.232 300.331 293.675 300.331 294.221V306.085C300.331 306.631 300.774 307.073 301.32 307.073H313.191C313.738 307.073 314.181 306.631 314.181 306.085V294.221C314.181 293.675 313.738 293.232 313.191 293.232Z" stroke="#808080" stroke-width="1.66667" stroke-linecap="round" stroke-linejoin="round"/>
<path d="M334.597 293.232H322.726C322.18 293.232 321.737 293.675 321.737 294.221V306.085C321.737 306.631 322.18 307.073 322.726 307.073H334.597C335.144 307.073 335.587 306.631 335.587 306.085V294.221C335.587 293.675 335.144 293.232 334.597 293.232Z" stroke="#808080" stroke-width="1.66667" stroke-linecap="round" stroke-linejoin="round"/>
<path d="M381.547 293.232H345.933C345.387 293.232 344.943 293.675 344.943 294.221V306.085C344.943 306.631 345.387 307.073 345.933 307.073H381.547C382.093 307.073 382.536 306.631 382.536 306.085V294.221C382.536 293.675 382.093 293.232 381.547 293.232Z" stroke="#808080" stroke-width="1.66667" stroke-linecap="round" stroke-linejoin="round"/>
<path d="M219.83 272.985H207.958C207.412 272.985 206.969 273.428 206.969 273.974V285.837C206.969 286.383 207.412 286.826 207.958 286.826H219.83C220.376 286.826 220.819 286.383 220.819 285.837V273.974C220.819 273.428 220.376 272.985 219.83 272.985Z" stroke="#808080" stroke-width="1.66667" stroke-linecap="round" stroke-linejoin="round"/>
<path d="M198.423 272.985H174.681C174.134 272.985 173.691 273.428 173.691 273.974V285.837C173.691 286.383 174.134 286.826 174.681 286.826H198.423C198.969 286.826 199.413 286.383 199.413 285.837V273.974C199.413 273.428 198.969 272.985 198.423 272.985Z" stroke="#808080" stroke-width="1.66667" stroke-linecap="round" stroke-linejoin="round"/>
<path d="M241.237 272.985H229.365C228.819 272.985 228.376 273.428 228.376 273.974V285.837C228.376 286.383 228.819 286.826 229.365 286.826H241.237C241.783 286.826 242.226 286.383 242.226 285.837V273.974C242.226 273.428 241.783 272.985 241.237 272.985Z" stroke="#808080" stroke-width="1.66667" stroke-linecap="round" stroke-linejoin="round"/>
<path d="M262.642 272.985H250.771C250.225 272.985 249.782 273.428 249.782 273.974V285.837C249.782 286.383 250.225 286.826 250.771 286.826H262.642C263.189 286.826 263.631 286.383 263.631 285.837V273.974C263.631 273.428 263.189 272.985 262.642 272.985Z" stroke="#808080" stroke-width="1.66667" stroke-linecap="round" stroke-linejoin="round"/>
<path d="M284.049 272.985H272.178C271.631 272.985 271.189 273.428 271.189 273.974V285.837C271.189 286.383 271.631 286.826 272.178 286.826H284.049C284.595 286.826 285.038 286.383 285.038 285.837V273.974C285.038 273.428 284.595 272.985 284.049 272.985Z" stroke="#808080" stroke-width="1.66667" stroke-linecap="round" stroke-linejoin="round"/>
<path d="M305.456 272.985H293.585C293.039 272.985 292.595 273.428 292.595 273.974V285.837C292.595 286.383 293.039 286.826 293.585 286.826H305.456C306.003 286.826 306.446 286.383 306.446 285.837V273.974C306.446 273.428 306.003 272.985 305.456 272.985Z" stroke="#808080" stroke-width="1.66667" stroke-linecap="round" stroke-linejoin="round"/>
<path d="M326.862 272.985H314.991C314.445 272.985 314.001 273.428 314.001 273.974V285.837C314.001 286.383 314.445 286.826 314.991 286.826H326.862C327.409 286.826 327.851 286.383 327.851 285.837V273.974C327.851 273.428 327.409 272.985 326.862 272.985Z" stroke="#808080" stroke-width="1.66667" stroke-linecap="round" stroke-linejoin="round"/>
<path d="M348.269 272.985H336.398C335.852 272.985 335.408 273.428 335.408 273.974V285.837C335.408 286.383 335.852 286.826 336.398 286.826H348.269C348.815 286.826 349.259 286.383 349.259 285.837V273.974C349.259 273.428 348.815 272.985 348.269 272.985Z" stroke="#808080" stroke-width="1.66667" stroke-linecap="round" stroke-linejoin="round"/>
<path d="M381.547 272.985H357.804C357.258 272.985 356.815 273.428 356.815 273.974V285.837C356.815 286.383 357.258 286.826 357.804 286.826H381.547C382.093 286.826 382.536 286.383 382.536 285.837V273.974C382.536 273.428 382.093 272.985 381.547 272.985Z" stroke="#808080" stroke-width="1.66667" stroke-linecap="round" stroke-linejoin="round"/>
<path d="M208.218 253.608H196.347C195.801 253.608 195.358 254.05 195.358 254.596V266.459C195.358 267.006 195.801 267.448 196.347 267.448H208.218C208.765 267.448 209.208 267.006 209.208 266.459V254.596C209.208 254.05 208.765 253.608 208.218 253.608Z" stroke="#808080" stroke-width="1.66667" stroke-linecap="round" stroke-linejoin="round"/>
<path d="M186.552 253.608H174.681C174.134 253.608 173.691 254.05 173.691 254.596V266.459C173.691 267.006 174.134 267.448 174.681 267.448H186.552C187.098 267.448 187.541 267.006 187.541 266.459V254.596C187.541 254.05 187.098 253.608 186.552 253.608Z" stroke="#808080" stroke-width="1.66667" stroke-linecap="round" stroke-linejoin="round"/>
<path d="M229.885 253.608H218.014C217.467 253.608 217.024 254.05 217.024 254.596V266.459C217.024 267.006 217.467 267.448 218.014 267.448H229.885C230.431 267.448 230.874 267.006 230.874 266.459V254.596C230.874 254.05 230.431 253.608 229.885 253.608Z" stroke="#808080" stroke-width="1.66667" stroke-linecap="round" stroke-linejoin="round"/>
<path d="M251.55 253.608H239.679C239.133 253.608 238.69 254.05 238.69 254.596V266.459C238.69 267.006 239.133 267.448 239.679 267.448H251.55C252.097 267.448 252.54 267.006 252.54 266.459V254.596C252.54 254.05 252.097 253.608 251.55 253.608Z" stroke="#808080" stroke-width="1.66667" stroke-linecap="round" stroke-linejoin="round"/>
<path d="M273.217 253.608H261.346C260.799 253.608 260.356 254.05 260.356 254.596V266.459C260.356 267.006 260.799 267.448 261.346 267.448H273.217C273.763 267.448 274.206 267.006 274.206 266.459V254.596C274.206 254.05 273.763 253.608 273.217 253.608Z" stroke="#808080" stroke-width="1.66667" stroke-linecap="round" stroke-linejoin="round"/>
<path d="M294.882 253.608H283.011C282.465 253.608 282.021 254.05 282.021 254.596V266.459C282.021 267.006 282.465 267.448 283.011 267.448H294.882C295.429 267.448 295.871 267.006 295.871 266.459V254.596C295.871 254.05 295.429 253.608 294.882 253.608Z" stroke="#808080" stroke-width="1.66667" stroke-linecap="round" stroke-linejoin="round"/>
<path d="M316.548 253.608H304.677C304.13 253.608 303.688 254.05 303.688 254.596V266.459C303.688 267.006 304.13 267.448 304.677 267.448H316.548C317.094 267.448 317.537 267.006 317.537 266.459V254.596C317.537 254.05 317.094 253.608 316.548 253.608Z" stroke="#808080" stroke-width="1.66667" stroke-linecap="round" stroke-linejoin="round"/>
<path d="M338.214 253.608H326.343C325.797 253.608 325.353 254.05 325.353 254.596V266.459C325.353 267.006 325.797 267.448 326.343 267.448H338.214C338.761 267.448 339.203 267.006 339.203 266.459V254.596C339.203 254.05 338.761 253.608 338.214 253.608Z" stroke="#808080" stroke-width="1.66667" stroke-linecap="round" stroke-linejoin="round"/>
<path d="M359.88 253.608H348.009C347.462 253.608 347.02 254.05 347.02 254.596V266.459C347.02 267.006 347.462 267.448 348.009 267.448H359.88C360.426 267.448 360.869 267.006 360.869 266.459V254.596C360.869 254.05 360.426 253.608 359.88 253.608Z" stroke="#808080" stroke-width="1.66667" stroke-linecap="round" stroke-linejoin="round"/>
<path d="M381.547 253.608H369.675C369.129 253.608 368.686 254.05 368.686 254.596V266.459C368.686 267.006 369.129 267.448 369.675 267.448H381.547C382.093 267.448 382.536 267.006 382.536 266.459V254.596C382.536 254.05 382.093 253.608 381.547 253.608Z" stroke="#808080" stroke-width="1.66667" stroke-linecap="round" stroke-linejoin="round"/>
<path d="M207.958 312.924H196.087C195.54 312.924 195.098 313.367 195.098 313.913V325.776C195.098 326.322 195.54 326.765 196.087 326.765H207.958C208.504 326.765 208.947 326.322 208.947 325.776V313.913C208.947 313.367 208.504 312.924 207.958 312.924Z" fill="#808080"/>
<path d="M186.552 312.924H174.681C174.134 312.924 173.691 313.367 173.691 313.913V325.776C173.691 326.322 174.134 326.765 174.681 326.765H186.552C187.098 326.765 187.541 326.322 187.541 325.776V313.913C187.541 313.367 187.098 312.924 186.552 312.924Z" fill="#808080"/>
<path d="M314.991 312.924H217.494C216.948 312.924 216.505 313.367 216.505 313.913V325.776C216.505 326.322 216.948 326.765 217.494 326.765H314.991C315.537 326.765 315.981 326.322 315.981 325.776V313.913C315.981 313.367 315.537 312.924 314.991 312.924Z" fill="#808080"/>
<path d="M336.398 312.924H324.526C323.98 312.924 323.537 313.367 323.537 313.913V325.776C323.537 326.322 323.98 326.765 324.526 326.765H336.398C336.944 326.765 337.387 326.322 337.387 325.776V313.913C337.387 313.367 336.944 312.924 336.398 312.924Z" fill="#808080"/>
<path d="M367.697 320.71H359.782C359.236 320.71 358.794 321.153 358.794 321.699V325.777C358.794 326.323 359.236 326.766 359.782 326.766H367.697C368.243 326.766 368.687 326.323 368.687 325.777V321.699C368.687 321.153 368.243 320.71 367.697 320.71Z" fill="#808080"/>
<path d="M367.697 312.924H359.782C359.236 312.924 358.794 313.367 358.794 313.913V317.991C358.794 318.537 359.236 318.98 359.782 318.98H367.697C368.243 318.98 368.687 318.537 368.687 317.991V313.913C368.687 313.367 368.243 312.924 367.697 312.924Z" fill="#808080"/>
<path d="M381.547 320.71H373.633C373.086 320.71 372.643 321.153 372.643 321.699V325.777C372.643 326.323 373.086 326.766 373.633 326.766H381.547C382.093 326.766 382.536 326.323 382.536 325.777V321.699C382.536 321.153 382.093 320.71 381.547 320.71Z" fill="#808080"/>
<path d="M353.847 320.71H345.933C345.387 320.71 344.943 321.153 344.943 321.699V325.777C344.943 326.323 345.387 326.766 345.933 326.766H353.847C354.393 326.766 354.836 326.323 354.836 325.777V321.699C354.836 321.153 354.393 320.71 353.847 320.71Z" fill="#808080"/>
<path d="M205.981 293.232H174.681C174.134 293.232 173.691 293.675 173.691 294.221V306.085C173.691 306.631 174.134 307.073 174.681 307.073H205.981C206.527 307.073 206.969 306.631 206.969 306.085V294.221C206.969 293.675 206.527 293.232 205.981 293.232Z" fill="#808080"/>
<path d="M227.566 293.232H215.694C215.148 293.232 214.705 293.675 214.705 294.221V306.085C214.705 306.631 215.148 307.073 215.694 307.073H227.566C228.112 307.073 228.555 306.631 228.555 306.085V294.221C228.555 293.675 228.112 293.232 227.566 293.232Z" fill="#808080"/>
<path d="M248.971 293.232H237.1C236.554 293.232 236.111 293.675 236.111 294.221V306.085C236.111 306.631 236.554 307.073 237.1 307.073H248.971C249.517 307.073 249.961 306.631 249.961 306.085V294.221C249.961 293.675 249.517 293.232 248.971 293.232Z" fill="#808080"/>
<path d="M270.378 293.232H258.507C257.961 293.232 257.518 293.675 257.518 294.221V306.085C257.518 306.631 257.961 307.073 258.507 307.073H270.378C270.925 307.073 271.368 306.631 271.368 306.085V294.221C271.368 293.675 270.925 293.232 270.378 293.232Z" fill="#808080"/>
<path d="M291.784 293.232H279.913C279.367 293.232 278.924 293.675 278.924 294.221V306.085C278.924 306.631 279.367 307.073 279.913 307.073H291.784C292.331 307.073 292.774 306.631 292.774 306.085V294.221C292.774 293.675 292.331 293.232 291.784 293.232Z" fill="#808080"/>
<path d="M313.191 293.232H301.32C300.774 293.232 300.331 293.675 300.331 294.221V306.085C300.331 306.631 300.774 307.073 301.32 307.073H313.191C313.738 307.073 314.181 306.631 314.181 306.085V294.221C314.181 293.675 313.738 293.232 313.191 293.232Z" fill="#808080"/>
<path d="M334.597 293.232H322.726C322.18 293.232 321.737 293.675 321.737 294.221V306.085C321.737 306.631 322.18 307.073 322.726 307.073H334.597C335.144 307.073 335.587 306.631 335.587 306.085V294.221C335.587 293.675 335.144 293.232 334.597 293.232Z" fill="#808080"/>
<path d="M381.547 293.232H345.933C345.387 293.232 344.943 293.675 344.943 294.221V306.085C344.943 306.631 345.387 307.073 345.933 307.073H381.547C382.093 307.073 382.536 306.631 382.536 306.085V294.221C382.536 293.675 382.093 293.232 381.547 293.232Z" fill="#808080"/>
<path d="M219.83 272.985H207.958C207.412 272.985 206.969 273.428 206.969 273.974V285.837C206.969 286.383 207.412 286.826 207.958 286.826H219.83C220.376 286.826 220.819 286.383 220.819 285.837V273.974C220.819 273.428 220.376 272.985 219.83 272.985Z" fill="#808080"/>
<path d="M198.423 272.985H174.681C174.134 272.985 173.691 273.428 173.691 273.974V285.837C173.691 286.383 174.134 286.826 174.681 286.826H198.423C198.969 286.826 199.413 286.383 199.413 285.837V273.974C199.413 273.428 198.969 272.985 198.423 272.985Z" fill="#808080"/>
<path d="M241.237 272.985H229.365C228.819 272.985 228.376 273.428 228.376 273.974V285.837C228.376 286.383 228.819 286.826 229.365 286.826H241.237C241.783 286.826 242.226 286.383 242.226 285.837V273.974C242.226 273.428 241.783 272.985 241.237 272.985Z" fill="#808080"/>
<path d="M262.642 272.985H250.771C250.225 272.985 249.782 273.428 249.782 273.974V285.837C249.782 286.383 250.225 286.826 250.771 286.826H262.642C263.189 286.826 263.631 286.383 263.631 285.837V273.974C263.631 273.428 263.189 272.985 262.642 272.985Z" fill="#808080"/>
<path d="M284.049 272.985H272.178C271.631 272.985 271.189 273.428 271.189 273.974V285.837C271.189 286.383 271.631 286.826 272.178 286.826H284.049C284.595 286.826 285.038 286.383 285.038 285.837V273.974C285.038 273.428 284.595 272.985 284.049 272.985Z" fill="#808080"/>
<path d="M305.456 272.985H293.585C293.039 272.985 292.595 273.428 292.595 273.974V285.837C292.595 286.383 293.039 286.826 293.585 286.826H305.456C306.003 286.826 306.446 286.383 306.446 285.837V273.974C306.446 273.428 306.003 272.985 305.456 272.985Z" fill="#808080"/>
<path d="M326.862 272.985H314.991C314.445 272.985 314.001 273.428 314.001 273.974V285.837C314.001 286.383 314.445 286.826 314.991 286.826H326.862C327.409 286.826 327.851 286.383 327.851 285.837V273.974C327.851 273.428 327.409 272.985 326.862 272.985Z" fill="#808080"/>
<path d="M348.269 272.985H336.398C335.852 272.985 335.408 273.428 335.408 273.974V285.837C335.408 286.383 335.852 286.826 336.398 286.826H348.269C348.815 286.826 349.259 286.383 349.259 285.837V273.974C349.259 273.428 348.815 272.985 348.269 272.985Z" fill="#808080"/>
<path d="M381.547 272.985H357.804C357.258 272.985 356.815 273.428 356.815 273.974V285.837C356.815 286.383 357.258 286.826 357.804 286.826H381.547C382.093 286.826 382.536 286.383 382.536 285.837V273.974C382.536 273.428 382.093 272.985 381.547 272.985Z" fill="#808080"/>
<path d="M208.218 253.608H196.347C195.801 253.608 195.358 254.05 195.358 254.596V266.459C195.358 267.006 195.801 267.448 196.347 267.448H208.218C208.765 267.448 209.208 267.006 209.208 266.459V254.596C209.208 254.05 208.765 253.608 208.218 253.608Z" fill="#808080"/>
<path d="M186.552 253.608H174.681C174.134 253.608 173.691 254.05 173.691 254.596V266.459C173.691 267.006 174.134 267.448 174.681 267.448H186.552C187.098 267.448 187.541 267.006 187.541 266.459V254.596C187.541 254.05 187.098 253.608 186.552 253.608Z" fill="#808080"/>
<path d="M229.885 253.608H218.014C217.467 253.608 217.024 254.05 217.024 254.596V266.459C217.024 267.006 217.467 267.448 218.014 267.448H229.885C230.431 267.448 230.874 267.006 230.874 266.459V254.596C230.874 254.05 230.431 253.608 229.885 253.608Z" fill="#808080"/>
<path d="M251.55 253.608H239.679C239.133 253.608 238.69 254.05 238.69 254.596V266.459C238.69 267.006 239.133 267.448 239.679 267.448H251.55C252.097 267.448 252.54 267.006 252.54 266.459V254.596C252.54 254.05 252.097 253.608 251.55 253.608Z" fill="#808080"/>
<path d="M273.217 253.608H261.346C260.799 253.608 260.356 254.05 260.356 254.596V266.459C260.356 267.006 260.799 267.448 261.346 267.448H273.217C273.763 267.448 274.206 267.006 274.206 266.459V254.596C274.206 254.05 273.763 253.608 273.217 253.608Z" fill="#808080"/>
<path d="M294.882 253.608H283.011C282.465 253.608 282.021 254.05 282.021 254.596V266.459C282.021 267.006 282.465 267.448 283.011 267.448H294.882C295.429 267.448 295.871 267.006 295.871 266.459V254.596C295.871 254.05 295.429 253.608 294.882 253.608Z" fill="#808080"/>
<path d="M316.548 253.608H304.677C304.13 253.608 303.688 254.05 303.688 254.596V266.459C303.688 267.006 304.13 267.448 304.677 267.448H316.548C317.094 267.448 317.537 267.006 317.537 266.459V254.596C317.537 254.05 317.094 253.608 316.548 253.608Z" fill="#808080"/>
<path d="M338.214 253.608H326.343C325.797 253.608 325.353 254.05 325.353 254.596V266.459C325.353 267.006 325.797 267.448 326.343 267.448H338.214C338.761 267.448 339.203 267.006 339.203 266.459V254.596C339.203 254.05 338.761 253.608 338.214 253.608Z" fill="#808080"/>
<path d="M359.88 253.608H348.009C347.462 253.608 347.02 254.05 347.02 254.596V266.459C347.02 267.006 347.462 267.448 348.009 267.448H359.88C360.426 267.448 360.869 267.006 360.869 266.459V254.596C360.869 254.05 360.426 253.608 359.88 253.608Z" fill="#808080"/>
<path d="M381.547 253.608H369.675C369.129 253.608 368.686 254.05 368.686 254.596V266.459C368.686 267.006 369.129 267.448 369.675 267.448H381.547C382.093 267.448 382.536 267.006 382.536 266.459V254.596C382.536 254.05 382.093 253.608 381.547 253.608Z" fill="#808080"/>
<path d="M194.025 222.068H362.202V235.361C362.202 236.41 361.785 237.415 361.043 238.157C360.301 238.898 359.295 239.315 358.245 239.315H197.982C196.933 239.315 195.926 238.898 195.184 238.157C194.442 237.415 194.025 236.41 194.025 235.361V222.068Z" fill="#808080"/>
<path opacity="0.12" d="M362.202 222.068H194.025V224.045H362.202V222.068Z" fill="#F2F4F7"/>
<g style="mix-blend-mode:multiply" opacity="0.25">
<path d="M358.245 235.36H197.982C196.933 235.36 195.926 234.943 195.184 234.202C194.442 233.46 194.025 232.454 194.025 231.405V235.36C194.025 236.408 194.442 237.414 195.184 238.156C195.926 238.898 196.933 239.314 197.982 239.314H358.245C359.295 239.314 360.301 238.898 361.043 238.156C361.785 237.414 362.202 236.408 362.202 235.36V231.405C362.202 232.454 361.785 233.46 361.043 234.202C360.301 234.943 359.295 235.36 358.245 235.36Z" fill="#808080"/>
</g>
<path d="M194.025 222.068H362.202V235.361C362.202 236.41 361.785 237.415 361.043 238.157C360.301 238.898 359.295 239.315 358.245 239.315H197.982C196.933 239.315 195.926 238.898 195.184 238.157C194.442 237.415 194.025 236.41 194.025 235.361V222.068Z" stroke="black" stroke-width="3.33333" stroke-linecap="round" stroke-linejoin="round"/>
<path d="M312.738 340.112H243.489C242.396 340.112 241.51 340.997 241.51 342.089V388.554C241.51 389.646 242.396 390.531 243.489 390.531H312.738C313.831 390.531 314.717 389.646 314.717 388.554V342.089C314.717 340.997 313.831 340.112 312.738 340.112Z" fill="white"/>
<path d="M312.738 340.112H243.489C242.396 340.112 241.51 340.997 241.51 342.089V388.554C241.51 389.646 242.396 390.531 243.489 390.531H312.738C313.831 390.531 314.717 389.646 314.717 388.554V342.089C314.717 340.997 313.831 340.112 312.738 340.112Z" stroke="#808080" stroke-width="1.66667" stroke-linecap="round" stroke-linejoin="round"/>
<path opacity="0.52" d="M278.114 81.8136C279.753 81.8136 281.082 80.4858 281.082 78.8475C281.082 77.2099 279.753 75.8821 278.114 75.8821C276.475 75.8821 275.146 77.2099 275.146 78.8475C275.146 80.4858 276.475 81.8136 278.114 81.8136Z" fill="#F2F4F7"/>
<path d="M278.114 81.8136C279.753 81.8136 281.082 80.4858 281.082 78.8475C281.082 77.2099 279.753 75.8821 278.114 75.8821C276.475 75.8821 275.146 77.2099 275.146 78.8475C275.146 80.4858 276.475 81.8136 278.114 81.8136Z" stroke="black" stroke-width="1.66667" stroke-linecap="round" stroke-linejoin="round"/>
<path d="M339.805 99.6847H327.933C327.387 99.6847 326.945 100.127 326.945 100.674C326.945 101.22 327.387 101.662 327.933 101.662H339.805C340.351 101.662 340.794 101.22 340.794 100.674C340.794 100.127 340.351 99.6847 339.805 99.6847Z" fill="#F2F4F7"/>
<path d="M365.5 99.6847H353.629C353.083 99.6847 352.64 100.127 352.64 100.674C352.64 101.22 353.083 101.662 353.629 101.662H365.5C366.047 101.662 366.49 101.22 366.49 100.674C366.49 100.127 366.047 99.6847 365.5 99.6847Z" fill="#F2F4F7"/>
<path d="M314.111 99.6847H302.24C301.693 99.6847 301.25 100.127 301.25 100.674C301.25 101.22 301.693 101.662 302.24 101.662H314.111C314.657 101.662 315.1 101.22 315.1 100.674C315.1 100.127 314.657 99.6847 314.111 99.6847Z" fill="#F2F4F7"/>
<path d="M186.341 105.971C188.985 105.971 191.127 103.83 191.127 101.189C191.127 98.5486 188.985 96.4076 186.341 96.4076C183.699 96.4076 181.557 98.5486 181.557 101.189C181.557 103.83 183.699 105.971 186.341 105.971Z" fill="#F2F4F7"/>
<g opacity="0.72">
<path opacity="0.72" d="M328.129 153.546H227.981V157.15H328.129V153.546Z" fill="#F2F4F7"/>
<path opacity="0.72" d="M315.465 141.586H240.647V145.242H315.465V141.586Z" fill="#F2F4F7"/>
</g>
<path d="M295.332 181.559H266.83C263.836 181.559 261.408 183.985 261.408 186.978C261.408 189.97 263.836 192.397 266.83 192.397H295.332C298.326 192.397 300.754 189.97 300.754 186.978C300.754 183.985 298.326 181.559 295.332 181.559Z" stroke="#F2F4F7" stroke-width="1.66667" stroke-miterlimit="10"/>
</svg>
